<?xml version="1.0" encoding="utf-8"?>
<!-- Generator: Adobe Illustrator 22.1.0, SVG Export Plug-In . SVG Version: 6.00 Build 0)  -->
<svg version="1.1" id="Layer_1" xmlns="http://www.w3.org/2000/svg" xmlns:xlink="http://www.w3.org/1999/xlink" x="0px" y="0px"
	 viewBox="0 0 425.2 425.2" style="enable-background:new 0 0 425.2 425.2;" xml:space="preserve">
<style type="text/css">
	.st0{fill:#FFFFFF;}
</style>
<g>
	<path class="st0" d="M30.8,10.6c121.4,0,242.7,0,364.1,0c0,135.3,0,270.6,0,405.8c-121.4,0-242.7,0-364.1,0
		C30.8,281.2,30.8,145.9,30.8,10.6z M288.5,332.5c-0.1-1.3-1.2-1.8-1.9-2.5c-0.1,0.1-0.3,0.2-0.4,0.4
		C287,331.1,287.8,331.8,288.5,332.5c0.2,0.2,0.4,0.6,0.7,0.8c1.7,1.4,3.5,2.7,5.1,4.1c2.8,2.6,6.3,4.4,8.8,7.3
		c0.2,0.2,0.4,0.3,0.6,0.4c2.6,1.6,5.3,3.2,7.9,4.9c2.4,1.5,4.8,3.1,7.2,4.4c3.9,2.1,7.8,4.1,11.8,6.1c0.8,0.4,1.7,0.5,2.5,0.8
		c0-0.1,0.1-0.3,0.1-0.4c-0.2-0.2-0.4-0.4-0.6-0.5c-5.4-3-10.9-6-16.2-9.1c-1.6-0.9-2.9-2.3-4.5-3.1c-4.3-2.1-7.8-5.1-11.7-7.7
		c-1.8-1.3-3.3-3.2-5.7-3.6c-0.3-0.1-0.6-0.3-0.8-0.5c-0.8-0.7-1.4-1.6-2.2-2.2C290.5,333.6,289.9,332.4,288.5,332.5z M89.1,197
		c0.9,1.1,1.6,2.5,2.7,3.1c1.3,0.7,2.1,1.7,2.8,2.9c0.3,0.5,0.4,0.8-0.3,1.1c-0.9,0.3-0.8,0.8-0.1,1.2c1.4,0.7,2.8,1.5,4.3,2
		c2,0.6,4.1,1.2,6.2,1.4c2.3,0.2,4.7,0.1,7,0.1c0.7,0,1.4-0.2,2.1-0.2c1-0.1,2.1-0.4,3.1-0.4c2.5-0.1,5.1,0.1,7.5-0.1
		c5.4-0.5,10.7-1.2,16.1-1.8c1.2-0.1,2.4-0.4,3.7-0.5c2.3-0.3,4.5-0.6,6.8-0.8c1.1-0.1,2.3,0,3.5-0.1c5.2-0.4,10.5-0.9,15.7-1.4
		c1.3-0.1,2.7-0.3,4-0.5c1-0.1,1.4,0.3,1.4,1.3c-0.1,1.7,0,3.5,0,5.2c0,0.2,0.1,0.4,0.1,0.6c0.3-0.3,0.5-0.7,0.6-1
		c0.2-1.5,0.4-3.1,0.5-4.6c0.2-1.6,0.4-1.8,2-1.9c1.2,0,2.4-0.1,3.6,0c0.3,0,0.9,0.5,0.9,0.8c0.3,2.3,0.5,4.7,0.7,7
		c0.3,4.8,0.6,9.6,1,14.4c0.1,1-0.3,1.5-1.2,1.5c-3.8,0-7.6,0-11.4,0c-2.6-0.1-5.1-0.4-7.7-0.3c-1,0-2.3,0.3-2.9,1
		c-0.6,0.8-1.1,2.1-0.4,3.3c0.2,0.4,0.3,0.8,0.6,1.5c-3.8-0.1-7.5,0.1-11.1-1c-1.2-0.3-1.7-1.2-1.5-2.3c0.1-0.9-0.3-1.2-1-1.3
		c-0.6-0.1-1.2-0.2-1.3,0.7c0,0.3-0.5,0.5-0.6,0.6c0.3,0.5,0.7,1,1,1.5c0.2,0.3,0.2,0.6,0.4,0.9c1.2,1.8,2.4,3.5,3.8,5.6
		c-2.2,0-4.2,0-6.2,0c0.5,3.5,4,4,5.4,6.3c-1.2,0.9-1.2,1.4,0.1,2c0.8,0.3,1.7,0.4,2.3,1c3.4,2.9,7.5,3.4,11.6,3.4
		c5.7,0,11.4-0.3,17.1-0.6c0.8,0,1.1,0.2,1.1,1c0,1-0.1,1.9-0.1,2.9c0,1.3,0,2.6,0,3.9c0.1,0,0.2,0,0.3,0.1c0.6-2.5,1.2-5.1,1.7-7.6
		c0.2,0,0.3,0,0.5,0c0,1.2,0.1,2.3,0,3.5c-0.1,0.7-0.6,1.4,0.6,1.6c0.1,0,0.3,0.4,0.3,0.5c-0.1,1.6,0,3.2-0.4,4.8
		c-0.3,1.6,0,3,0.6,4.4c0.1,0.3,0.5,0.5,0.8,0.8c0.1-0.1,0.2-0.2,0.3-0.2c-0.2-0.3-0.3-0.7-0.5-1c-0.7-1.5-0.1-2.5,1.5-2.5
		c0.2,0,0.3,0,0.5,0c1.7-0.3,1.7-0.3,2.1,1.3c0.1,0.5,0.1,1,0.2,1.4c0.1,0.6,0.4,1.1,0.6,1.7c0.3,0.8,0.7,1.6,0.9,2.4
		c0.1,0.2-0.3,0.8-0.5,0.9c-1.4,0.3-2.8,0.7-4.3,0.8c-2.5,0.2-5,0.2-7.5,0.2c-0.9,0-1.8-0.2-2.9-0.4c-0.6,0.8-1.9,0.8-3,0.9
		c-2.1,0.2-4.3,0.2-6.4,0.3c-1.9,0.1-3.7,0.4-5.6,0.4c-2.3,0.1-4.6-0.1-6.8,0c-5.2,0.2-10.4,0.5-15.6,0.8c-3.9,0.3-7.7,0.7-11.6,1
		c-0.5,0-1,0-1.6-0.1c-2.2-0.1-4.5-0.3-6.7-0.3c-3.3,0-6.7,0.1-10,0.3c-4.2,0.2-8.4,0.4-12.7,0.7c-1.4,0.1-3,1.9-2.9,3.1
		c-1.3,0.2-1.3,0.2-0.6,2.5c-1.4,0.5-2.7,0.6-4.2,0.4c-2.2-0.2-4.6-0.7-6.8-0.2c-1.8,0.4-3.2,0.1-4.7-0.4c-0.2-0.1-0.5,0-1,0.1
		c1.6,1.2,2.9,2.1,4.3,3.1c0.5,0.3,1.1,0.5,1.5,0.9c1.2,0.9,1.2,1.6,0,2.4c-0.3,0.2-0.9,0.3-1.4,0.2c-1.1,0-2.2-0.2-3.4-0.2
		c0,0.1-0.1,0.2-0.1,0.3c1.7,1.6,3.4,3.2,5.2,4.9c-1,0.4-1.6,0.6-2.6,1c0.6,0.2,0.8,0.2,1,0.3c1.6,0.7,3.5,1,4.6,2.2
		c1.7,1.8,3.9,2.1,6,2.6c3.3,0.7,6.5-0.3,9.8-0.4c3.3-0.1,6.6-0.5,9.9-0.6c2.1-0.1,4.2,0,6.3-0.1c3.9-0.2,7.7-0.5,11.6-0.8
		c5.8-0.5,11.6-1,17.4-1.5c2.9-0.2,5.7-0.3,8.6-0.5c4.5-0.4,9-0.8,13.4-1.2c2.1-0.2,4.2-0.2,6.3-0.3c3.4-0.3,6.7-0.6,10.1-1
		c1.2-0.1,2.5-0.3,3.7-0.5c0.4-0.1,0.8-0.1,1.2-0.1c2.1-0.1,4.1-0.1,6.2-0.3c4.1-0.4,8.2-1,12.2-1.4c3.3-0.3,6.5-0.4,9.8-0.7
		c2.8-0.2,5.5-0.6,8.3-0.9c2.8-0.2,5.6-0.3,8.3-0.5c1.9-0.2,3.7-0.4,5.6-0.7c3.3-0.6,6.7-0.6,10.1-0.9c3.1-0.3,6.2-0.7,9.3-0.9
		c4.8-0.4,9.5-0.7,14.3-1.2c0.9-0.1,1.7-0.3,2.5-0.6c1.4-0.5,2.7-1.1,4-1.5c1.1-0.3,2.3-0.2,3.4-0.3c2.8-0.4,5.6-0.9,8.4-1.3
		c3.8-0.6,7.5-1.1,11.3-1.6c0.4-0.1,0.9-0.3,1.3-0.5c-0.3-0.4-0.6-0.5-0.8-0.6c-0.5-0.1-1.1-0.1-1.5-0.3c-1-0.6-1.2-4.8-0.2-5.4
		c1.4-0.7,2.9-1.3,4.5-1.6c1.2-0.3,2.5-0.1,3.6-1c0.3-0.2,0.7-0.3,1.1-0.4c2-0.6,4.2-0.8,5.2-3c0.4-1,1.3-1.3,2.2-1.7
		c0.9-0.3,1.8-0.8,3-1.4c-0.5,0-0.7-0.1-0.8,0c-2.8,1.4-5.8,2.3-8.9,2.9c-0.7,0.1-2,0.1-2.2-0.3c-0.4-1.1-1.2-0.9-2-0.9
		c-4.1,0.2-8.1,0.5-12.1,0.7c-0.7,0-1.7,0.6-2-0.7c0-0.1-0.3-0.1-0.4-0.1c-1.2,0.2-2.5,0.4-3.7,0.5c-1.8,0.2-3.5,0.4-5.3,0.4
		c-1.9,0.1-3.7,0-5.6,0.1c-0.3,0-0.6,0.1-0.9,0c-1.5-0.4-3-0.3-4.5,0.1c-1,0.3-2.1,0.4-3.1,0.5c-2.2,0.1-4.3,0-6.5,0.1
		c-1.9,0.1-3.7,0.5-5.5,0.6c-1.6,0.1-3.1,0-4.7,0.3c-2.6,0.5-5.2,0.5-7.9,0.6c-3,0.1-6-0.3-8.9,0.5c-0.7,0.2-1.5,0.1-2.3,0.2
		c-1.8,0.1-3.6,0.2-5.4,0.3c-0.6,0-1.3,0.2-1.9,0c-1.3-0.3-2.5-0.5-3.8,0.1c-0.6,0.2-1.4,0.4-1.8,0.1c-1.2-0.9-2.2-0.1-3.3,0.2
		c-0.3,0.1-0.6,0.3-0.9,0.3c-2.2,0.1-4.4,0.2-6.7,0.3c-2.2,0.1-4.4,0.1-6.5,0.3c-2.2,0.2-2.5,0.1-3.4-2c-0.1-0.3-0.2-0.5-0.3-0.8
		c-0.3-1-1.2-2.1-0.9-2.8c0.5-1.3-0.3-2-0.7-2.9c-0.5-1.1-1.2-2.3-1.3-3.4c-0.2-1.8,0.2-3.6,0.1-5.4c0-2.3,0.3-3,2.6-3.6
		c0.9-0.3,1.9,0,2.8-0.2c2-0.5,4-1.3,6-1.9c2.1-0.6,4.2-1.3,6.3-1.7c3.4-0.7,6.9-1.1,10.4-1.6c0.3,0,0.5-0.2,1-0.4
		c-0.5-0.3-0.8-0.3-0.9-0.5c-0.5-0.6-1.1-1.3-1.3-2c-0.1-0.3,0.9-1.2,1.4-1.2c2.2,0.1,2.7-2.3,4.3-2.9c0.2-1.8,1.5-1.4,2.6-1.3
		c0.3,0,0.6,0,0.9-0.1c2.3-0.7,4.5-1.5,6.8-2.2c0.8-0.3,1.7-0.2,2.5-0.5c1.5-0.6,2.8-1.3,4.3-2c0.5-0.3,1-0.6,1.5-0.9
		c0-0.1,0-0.3,0-0.4c-0.8-0.1-1.5-0.3-2.3-0.2c-1.2,0.2-2.3,0.8-3.6,1c-1.3,0.2-2.7,0.2-4.1,0c-1.2-0.1-1.3-0.8-0.5-1.7
		c0.2-0.3,0.5-0.6,0.8-1c-1.8,0.2-3.5,0.5-5.1,0.6c-0.4,0-0.9-0.1-1.4-0.2c-0.7-0.2-1.3-0.5-2-0.5c-3.2,0.1-6.4,0.3-9.6,0.4
		c-5.5,0.2-11.1,0.3-16.6,0.4c-1.5,0-3,0.2-4.5,0.2c-0.4,0-1-0.4-1-0.6c0-0.7,0.1-1.5,0.3-2.2c0.2-0.9,0.8-1.8,0.8-2.7
		c0.1-2,0-4,0-6.1c0-3.9,0.1-7.7,0.1-11.6c0-1.2,0.4-1.4,2-1.4c1.1,0,1.4,0.6,1.3,1.5c-0.2,1.7-0.5,3.4-0.8,5.1
		c-0.1,0.8-0.2,1.4,0.6,1.7c0.5-0.6,0.9-1.1,1.3-1.6c0.4,0.5,0.8,1,1.1,1.4c0.4-2.4,0.9-4.8,1.3-7.3c0.2-1,0.7-1.2,1.6-1.2
		c1.6,0,3.2,0.1,4.8,0.1c1.3,0,2.5-0.2,3.8-0.3c3.1,0,6.2,0.1,9.3,0c1.7,0,3.3-0.2,5-0.3c3.2-0.1,6.3-0.2,9.5-0.1
		c2.6,0,5.2,0.3,7.8,0.4c1.1,0.1,2.2,0.2,3.3,0.2c2.4,0,4.8-0.1,7.1-0.1c1.4,0,2.8,0.7,4-0.3c0.1-0.1,0.3,0,0.5,0
		c2.7,0.1,5.5,0.3,8.2,0.3c1.9,0,3.9-0.4,5.8-0.5c2.3-0.2,4.7-0.2,7-0.3c0.2,0,0.5-0.1,1-0.3c-0.7-0.2-1.2-0.3-1.6-0.5
		c-1.3-0.5-2.5-1.8-2.2-3.4c0.4-2.3,2.4-4.3,4.7-4.5c1.9-0.2,3.8-0.2,5.7-0.4c0.8-0.1,1.6-0.2,2.2-0.6c1.2-0.9,2.2-2,3.5-3.3
		c-1.3-0.2-2.5-0.3-3.6-0.4c-1.5-0.2-1.6-0.4-1-1.7c0.4-0.7,0.5-1.5-0.5-1.8c-2.6-0.8-5.3-1.5-7.9-2.2c-0.7-0.2-1.4-0.1-2.1-0.3
		c-1.2-0.2-1.7-0.9-1.5-1.9c0.2-0.9,0.2-1.8,0.4-2.7c0.1-0.4,0.2-1,0.4-1.3c1.2-1.5,2.1-3,1.8-5c-0.1-0.7,0-1.2,0.9-1.4
		c0.3-0.1,0.7-0.7,0.7-1.2c0.1-1.7,0.1-3.4,0-5c-0.2-2.7-0.7-5.4-0.9-8.1c-0.3-3.5-0.4-7-0.6-10.5c0-0.9-0.1-1.8,1-2.2
		c0.7-0.3,1.3-0.7,1.9-1.1c0.2-0.1,0.5-0.2,1.2-0.4c0.2,5.8,0.4,11.4,0.5,16.9c0.7-0.3,0.9,0.2,1,0.9c0.3,1.9,0.7,3.7,1,5.5
		c0.1,0,0.3,0,0.4-0.1c0-1.9,0-3.7,0-5.6c0-0.6,0.3-1.1,0.4-1.7c0.2-0.6,0.5-1.1,0.5-1.7c0.1-1,0-1.9,0-2.9
		c-0.2-3.2-0.3-6.4-0.5-9.6c0-0.9,0.1-1.5,1.2-1.9c1.2-0.4,2.3-1.1,3.4-1.6c0.4-0.2,0.9-0.4,1.3-0.5c3.5-0.5,6.9-1.1,10.4-1.3
		c4.2-0.3,8.5-0.4,12.8-0.6c0.3,0,0.5-0.1,0.8-0.2c-0.7-0.5-1.5-0.5-2.1-0.9c-1.1-0.8-2.2-1.7-3.4-2.8c1.1-0.3,2.2-0.6,3.3-0.9
		c1-0.2,1.9-0.4,2.9-0.7c0.9-0.2,1.9-0.6,2.8-0.8c0.8-0.2,1.7-0.1,2.5-0.4c2.7-1.2,5.7-1.2,8.5-1.5c4.4-0.4,8.8,0.5,13.2-0.2
		c1.6-0.3,3.4,0.1,5.1,0.1c4-0.1,8.1-0.3,12.1-0.4c1.1,0,2.3,0.1,3.4,0.2c0-0.1,0-0.2,0-0.3c-1.6-0.2-3.1-0.5-4.7-0.6
		c-4.5-0.2-8.9-0.4-13.4-0.6c-4.4-0.2-8.8-0.4-13.2-0.7c-4-0.2-8-0.4-11.9-0.6c-0.4,0-0.8-0.1-1.2-0.2c-1.9-0.2-3.7-0.3-5.6-0.5
		c-1.9-0.1-3.8-0.2-5.7-0.4c-0.4,0-0.8-0.4-1.2-0.7c0-0.2,0.1-0.3,0.1-0.5c1.7-0.2,3.3-0.3,5-0.5c0-0.1,0-0.3,0-0.4
		c-0.4-0.1-0.7-0.2-1.1-0.2c-4.8,0.1-9.7,0.3-14.5,0.3c-1.7,0-3.5-0.3-5.2-0.3c-1.7-0.1-3.4,0-5,0.1c-0.7,0-1.5,0.1-1.7-0.7
		c-0.1-0.6,0.3-1.3,0.5-2c-0.1-0.1-0.6-0.3-0.7-0.6c-0.3-1.7-0.5-3.4-0.6-5.1c-0.2-3-0.4-6-0.6-8.9c-0.2-2.3-0.5-4.7-0.9-7
		c-0.4-3-1.2-6-1.3-9c-0.2-4.1-1.7-7.7-3.3-11.4c-0.2,0.8-0.6,1.6-0.7,2.5c-0.8,4.9,0.2,9.6,0.8,14.4c0.1,1,0.3,2,0.4,3
		c0.4,2.8,0.7,5.5,1,8.3c0.4,3.2,0.8,6.3,1,9.5c0.2,2.2,0,4.4,0,6.9c-1-0.4-1.8-0.7-2.6-1.1c-0.3-0.2-0.8-0.6-0.8-0.9
		c-0.3-1.3-0.5-2.7-0.6-4.1c-0.4-3-0.7-6-1.1-9c0-0.4-0.1-0.8-0.2-1.2c-0.3-2.7-0.6-5.4-0.8-8.1c-0.1-2.2,0-4.3,0-6.5
		c0-1.8,0-3.6,0.1-5.3c0-4.2,0.7-8.5-0.3-12.7c-0.5-2.1-1.2-3.9-2.6-5.5c-0.5-0.6-1-1.2-1.4-1.9c-0.1-0.2,0.1-0.9,0.4-1.1
		c0.5-0.3,1.2-0.4,1.8-0.5c2.5-0.3,5-0.6,7.6-0.9c1.3-0.1,2.6,0,3.8-0.5c1.8-0.7,3.7-1,5.6-0.9c1.8,0,3.6-0.1,5.4-0.2
		c1-0.1,2.1-0.3,3.1-0.3c2.9-0.3,5.9-0.5,8.8-0.8c0.1,0,0.3-0.1,0.6-0.3c-0.8-0.3-1.5-0.4-1.9-0.7c-0.6-0.6-1.6-1.6-1.4-2.1
		c0.4-1.1,1.3-2.1,2.2-2.8c0.7-0.5,1.9-0.4,2.8-0.8c2.1-1,4.3-0.8,6.5-1.3c0.5-0.1,1.2-0.3,1.5-0.7c1.2-1.8,2.6-3.1,4.7-3.8
		c0.3-0.1,0.5-0.4,0.8-0.5c-0.1-0.1-0.1-0.2-0.2-0.3c-0.5,0.1-1,0.2-1.4,0.5c-2.4,1.6-5.2,1.6-7.8,1.7c-9.5,0.3-18.9,0.3-28.4,0.4
		c-0.4,0-0.8-0.1-1.4-0.2c1.2-1.7,2.9-0.4,4.2-1.3c-0.6-0.1-1-0.3-1.4-0.3c-1,0.1-2,0.3-2.9,0.4c-2.5,0.2-4.9,0.4-7.4,0.6
		c-0.9,0.1-1.8,0.2-2.6,0.1c-0.7-0.1-1.4-0.7-2.1-1c-0.4-0.2-0.7-0.6-1.1-0.7c-2.3-0.7-4.1,1.6-6.4,1c-0.1,0-0.2,0-0.2,0
		c-0.1,0-0.2-0.1-0.4-0.1c0.1-0.3,0.1-0.5,0.2-0.9c-1.2-0.1-2.2-0.3-3.1,0.7c-0.5,0.6-1.3,0.5-2-0.1c-0.4-0.3-1-0.7-1.4-0.6
		c-1.4,0.4-2.7,0.9-4.2,0.8c-1.5-0.1-3,0.1-4.5,0.2c-0.3,0-0.5-0.3-0.8-0.5c-0.3-0.2-0.6-0.5-0.9-0.4c-2.3,0.1-4.6-0.2-6.9,0.7
		c-1.3,0.5-2.9-0.7-4.1,0.6c-2.6,0-5.2,0-7.8-0.1c-1.5,0-2.9-0.1-4.4-0.1c-0.5,0-0.9,0.2-1.4,0.3c-0.7,0.1-1.4,0.2-2.2,0.3
		c0.8-1.4,2.8-0.4,3.4-2.3c-2.1,0.5-4.1,0.9-6.1,1.4c0,0.1,0,0.2,0,0.3c0.5,0.1,1.1,0.2,1.6,0.3c-1,0.5-1.9,0.7-2.8,0
		c-0.8-0.7-1.8-0.9-2.8-0.8c-1.1,0.1-2.2,0-3.2,0.1c-1.2,0.2-2.5,0.5-3.6,0.9c-2.2,0.7-4.4,1.8-6.9,1.2c-0.9-0.2-2,0.1-3,0.2
		c-0.6,0-1.1-0.1-1.7-0.1c-0.6-0.1-1.3-0.3-1.8-0.2c-1.8,0.3-3.5,0.8-5.3,1.2c-2.6,0.5-5.3-0.1-7.9,0.7c-1.2,0.4-2.6,0-3.9,0.1
		c-0.6,0-1.2,0-1.8,0.1c-2,0.3-4,0.8-6,1c-5,0.6-10,1.2-14.9,1.7c-3.8,0.4-7.6,0.7-11.4,1.1c-2.6,0.2-5.1,0.4-7.7,0.7
		c-0.8,0.1-1.6,0.1-2.4,0.1c-4.4,0.2-8.7,0.4-13.1,0.7c-1,0.1-2,0.4-2.9,0.4c-1.1,0-2.4,0.1-3.2-0.5c-0.9-0.6-1.7-0.6-2.6-0.5
		c-0.6,0.1-1,0.6-0.7,1.4c0.5,1,0,1.8-0.7,3c-0.7-0.9-1.2-1.6-1.8-2.2c-0.4-0.4-1-0.7-1.5-1c-0.1,0.6-0.3,1.1-0.4,1.7
		c0,0.1-0.1,0.1-0.2,0.2c-1.5-0.6-3-1.1-4.4-1.6c0.1,0.9,0.2,1.9,0.3,3c-0.1,0.1-0.3,0.1-0.4,0.2c-1.2-0.6-2.4-1.1-3.5-1.6
		c0,1,0.1,2.1,0,3.2c0,0.5-0.5,1.2-0.8,1.2c-1.2,0.2-2.5,0.8-3.7-0.2c-1.1,1.9-3.3-0.2-4.4,1.4c1.8,0.8,3.5,1.5,5.2,2.4
		c0.6,0.3,1.2,0.9,1.4,1.5c0.6,1.3,1.1,2.7,0.4,4.2c-0.1,0.3,0,0.6,0,0.9c0.2,0.8,0.6,1.7,0.6,2.5c-0.3,5.6-0.7,11.2-1.1,16.8
		c-0.5,6.1-1.1,12.1-1.6,18.1c-0.3,3.6-0.4,7.3-0.5,10.9c-0.1,6.9-0.4,13.8-0.2,20.7c0.2,5.9,1,11.9,1.6,17.8
		c0.3,3.3,0.7,6.5,1.4,9.7c1,4.2,2.4,8.2,3.6,12.3c0.4,1.3,1.1,2.5,1.8,4c-1.3,0.8-3.1,1.5-3.9,3.6c-0.8,0.1-2-0.3-1.9,1.4
		c0,0.1-0.4,0.4-0.6,0.4c-3,0.4-6.1,1.3-9.1-0.4c-0.1,0.3-0.1,0.5-0.1,0.7c-0.3,1.3,0.8,1.9,1.3,2.8c0.7,1.1,0.7,1.4-0.6,1.9
		C91.7,196.7,90.5,196.8,89.1,197z M263.5,315.6c0.1,0.5,0.1,0.6,0.1,0.7c1.6,2.6,2.5,5.3,2.3,8.4c0,0.5,0.1,0.9,0.3,1.4
		c1.2,3.1,2.4,6.1,3.5,9.3c0.5,1.4,0.5,2.9,0.8,4.4c-0.1,0-0.2,0.1-0.3,0.1c-0.6-0.9-1.2-1.8-1.8-2.7c-0.5-0.7-0.9-1.6-1.6-1.9
		c-1.1-0.5-1.5-1.3-2.1-2.2c-0.6-1.1-1.3-2.1-2-3.1c-0.3,0.3-0.4,0.5-0.3,0.7c0.8,3.5,1.5,6.9,2.3,10.4c0.1,0.3,0.2,0.5,0.3,0.8
		c1.4,2.1,2.7,4.4,4.3,6.4c1.9,2.4,4,4.7,6.3,6.6c4.1,3.2,8.5,6.2,12.9,8.9c5.5,3.4,11.2,6.4,16.8,9.6c1.9,1.1,3.9,2.1,5.8,3
		c3.8,1.8,7.6,3.6,11.5,5.3c1.3,0.6,2.6,0.8,3.9,1.3c2,0.7,4,1.6,6.1,2.2c1.4,0.4,2.9,0.3,4.3,0.5c2.3,0.3,4.6,0.7,7,0.9
		c0.5,0.1,1-0.1,1.5-0.1c-0.6-0.6-1.3-0.9-1.8-1.4c-0.4-0.4-0.9-1-0.9-1.5c0-0.4,0.8-0.7,1.3-1c0.3-0.2,0.8-0.1,1.2-0.3
		c0.4-0.1,0.9-0.3,1.1-0.6c1.3-1.7,2.8-3,5-3.5c0.4-0.1,0.8-0.3,1-0.6c0.8-0.8,1.9-1.4,2.2-2.9c-0.7,0.2-1.2,0.4-1.7,0.5
		c-2.4,0.6-4.7-1.1-4.8-3.6c0-0.3-0.1-0.8-0.3-1c-1.2-1-2.4-2.2-3.8-2.9c-3.1-1.5-6.3-2.8-9.4-4.1c-2.1-0.9-4.2-1.8-6.2-2.7
		c-2-0.9-3.9-1.9-5.8-2.9c-3.6-1.9-7.3-3.7-10.9-5.7c-2.9-1.6-5.9-3.2-8.7-5c-2.9-1.8-5.7-3.9-8.4-5.9c-3.3-2.5-6.7-5-9.5-8.2
		c-1.5-1.7-2.6-3.7-3.9-5.5c-1-1.5-2.1-3.1-3.1-4.7c-1.4-2.2-3.4-3.8-5.6-5.3c-0.8-0.5-1.5-0.9-2.3-0.5c-0.3,0.2-0.3,1.1-0.4,1.7
		c-0.1,1.1-0.4,1.3-1.4,0.7c-1-0.6-1.9-1.4-2.9-2.1C265.2,317.1,264.5,316.5,263.5,315.6z M76.4,380.2c1.5-1.2,2.8-2.3,4.1-3.4
		c1-0.9,2-1.8,3.1-2.6c1.1-0.8,2.4-1.3,3.4-2.2c2.8-2.6,5.5-5.3,8.3-7.9c0.7-0.6,1.5-1.2,2.3-1.7c0.9-0.5,1.4-1.1,2-1.9
		c0.7-1,1.9-1.7,3-2.6c0.5-0.4,1-0.7,1.5-1.1c1.4-1.3,2.7-2.6,4.1-3.8c1.2-1,2.7-1.9,3.9-2.9c1.2-1.1,2.1-2.3,3.2-3.5
		c2.1-2.2,4.3-4.5,6.5-6.6c1.8-1.7,2.5-3.7,2.7-6.1c0.1-0.9,0.5-1.8,1-2.5c1.7-2.2,3.5-4.3,5.1-6.4c0.9-1.1,0.4-2.6-0.9-3.2
		c-0.3-0.1-0.5-0.3-0.8-0.5c-1.2-0.8-1.4-0.8-2.2,0.5c-0.3,0.5-0.7,0.9-1.3,0.4c-0.8-0.8-1.5-1.6-2.3-2.4c-1.4-1.6-2.8-3.2-4.9-4.1
		c-1.4-0.6-3-0.4-4.1,0.1c-1.4,0.6-2.7,1.7-3.5,3.3c-0.8,1.7-1.3,1.8-2.6,0.4c-0.7-0.8-1.1-0.7-1.8,0.2c-1.6,2.3-3.3,4.6-5.1,6.8
		c-0.9,1.1-2,2.3-3.9,1.6c0.9,0.8,0.3,1.4-0.1,2c-1.4,1.8-2.9,3.6-4.2,5.5c-0.7,1-1.3,2.2-2,3.2c-0.8,1.1-1.8,2.1-2.7,3.1
		c-0.6,0.7-1.1,1.6-1.5,2.4c-0.4,0.7-0.5,1.4-0.9,2.1c-0.7,1.1-1.5,2-2.2,3.1c-1.5,2.2-2.9,4.5-4.3,6.8c-1.2,2-2.5,3.9-3.3,6.1
		c-0.8,2-1,4.3-1.3,6.4c-0.2,1.2-0.6,2.2-1.4,3.1c-0.7,0.8-1.2,1.7-1.9,2.7C74.4,374.8,75.7,375.8,76.4,380.2z M164.2,365.5
		c0.4,4.1,0.7,8,1.1,11.9c0.1,0.5,0.8,1,1.3,1.3c0.6,0.4,1.2,0.7,1.8,1.1c0.9,0.6,1.8,1.3,2.8,1.9c1.3,0.8,1.6,0.6,2.1-0.8
		c0.2-0.6,0.3-1.2,0.4-1.7c0.3-1.7,0.4-3.5,0.8-5.2c0.2-0.9,0.7-1.9,1.4-2.4c1.1-0.7,1.7-1.8,2.1-2.9c0.8-1.9,1.3-3.9,1.8-5.9
		c0.6-3,1.1-6.1,1.6-9.1c0.2-1.4,0.4-2.8,0.6-4.2c0.1-0.4,0.3-1,0.6-1.1c1-0.3,0.7-1,0.8-1.6c0.3-1.7,0.5-3.5,1.1-5.1
		c0.6-1.5,1.1-2.9,1-4.5c0-0.6,0-1.3,0-1.9c0.1-1.8,0.4-3.7,0.4-5.5c0-0.8,0-1.8-0.4-2.5c-1-1.8-2.2-3.6-3.6-5.2
		c-0.7-0.7-2-1.4-3-1.2c-1.2,0.2-2.2,0.1-3.3-0.4c-0.2-0.1-0.8,0.1-0.9,0.3c-0.7,1-1.1,2.2-1.8,3.2c-0.4,0.6-1,1.4-1.7,1.6
		c-0.9,0.3-1.4,0.8-1.6,1.7c-0.3,1.8-0.5,3.6-1.7,5.1c-0.8,1.1-1.4,2.5-1.2,4.1c0.5,4.4-0.3,8.8-0.8,13.1
		C165.3,354.9,164.8,360.3,164.2,365.5z M227.4,323.1c-0.1,0.1-0.3,0.1-0.4,0.2c0,0.1-0.1,0.2-0.1,0.3c0.3,1.9,0.3,1.9-1.5,1.8
		c-0.2,0-0.4-0.1-0.6,0c-0.7,0.3-1.3,0.8-1.9,0.9c-0.8,0.2-1,0.6-0.6,1.1c1.2,1.7,0.5,2.8-1.1,3.7c-0.1,0-0.1,0.1-0.2,0.2
		c-0.6,0.5-1.1,0.9-0.4,1.8c0.4,0.5,0.1,0.9-0.6,1.1c-1,0.2-1.9,0.7-2.8,1.2c-0.7,0.4-1.2,1-1.9,1.3c-0.7,0.4-0.9,0.9-0.8,1.5
		c0.1,0.5,0.3,0.9,0.5,1.3c0.6,0.9,0.7,1.8-0.1,2.7c-0.7,0.8-0.6,1.6,0.4,2.3c0.3,0.2,0.6,0.7,0.7,1.2c0.5,3.8,1.4,7.5,2.7,11.1
		c0.8,2.1,2.2,3.2,3.7,4.4c0.5,0.4,1.2,0.7,1.8,0.7c1.1,0,2,0.1,2.7,1c0.2,0.2,0.6,0.3,0.8,0.2c0.2-0.1,0.4-0.5,0.4-0.8
		c-0.1-1-0.2-2-0.3-3c-0.1-1.1-0.2-2.1-0.2-3.2c0-0.8,0.3-1.4,1.3-0.8c0.2,0.1,0.8,0.1,0.9,0c0.6-0.9,1.4-1.8,1.8-2.8
		c0.5-1.4,0.6-2.9,0.9-4.3c0.1-0.7,0.3-1.4,0.3-2.1c0-2-0.1-4,0-5.9c0-1.5,0.2-3,0.3-4.5c0-0.9,0.2-1.8,0-2.6
		c-0.4-1.4-1.2-2.7-1.4-4.1c-0.2-1.4-0.9-1.9-2-2.1c-1.4-0.2-1.9-0.9-1.9-2.3C227.8,324,227.6,323.6,227.4,323.1z M282,369.9
		c0.3,0.3,0.5,0.7,0.9,0.9c1,0.7,2,1.3,3,1.9c1.1,0.6,2.2,1.2,3.3,1.8c1.7,1,3.4,2.1,5.1,3c2.4,1.2,4.9,2.3,7.4,3.4
		c0.8,0.3,1.6,0.6,2.7-0.1c-0.7-0.4-1.3-0.7-1.8-0.9c-1-0.4-2.1-0.5-3.1-1c-4.2-2.2-8.3-4.4-12.4-6.7c-0.6-0.3-0.9-1-1.4-1.6
		c-0.2-0.2-0.4-0.5-0.7-0.5C284.1,370,283.1,370,282,369.9z M95.3,328.5c0.3-0.2,0.7-0.5,1.2-0.8c0.6-0.5,1.2-1.1,1.9-1.5
		c0.7-0.5,1.6-0.7,2.3-1.2c0.3-0.2,0.6-0.7,0.6-1.1c0-0.3-0.5-0.8-0.7-0.7c-0.4,0-0.8,0.3-1.1,0.6c-0.3,0.3-0.5,0.9-0.9,1
		c-1.2,0.4-2.4,0.6-3.7,0.8c-1,0.1-1.2,0.7-1.1,1.5C93.8,327.8,94.2,328.4,95.3,328.5z M158.5,347.8c1.3-0.6,3.3-4,3-5.3
		c0-0.2-0.3-0.5-0.5-0.6c-0.2,0-0.5,0.2-0.6,0.4c-0.7,1.6-1.3,3.2-2,4.8C158.4,347.4,158.5,347.6,158.5,347.8z M208.4,345
		c0.2,1,0.4,2.1,0.7,3.2c0.3,1,0.7,2,1,3c0.1,0,0.2-0.1,0.3-0.1c-0.1-0.8,0-1.6-0.3-2.3c-0.8-2-0.7-2.3,0.7-3.9c0,0,0-0.1,0-0.2
		C209.9,344.8,209.1,344.9,208.4,345z M208.4,355.2c0.4-2.9,0.6-5.7-0.8-8.3c-0.2,0-0.3,0.1-0.5,0.1
		C207.6,349.7,208,352.5,208.4,355.2z M92.4,59.8c1.3,1.2,2.3,1,3.3,0.4c0.3-0.2,0.7-0.6,0.7-0.6c-0.2-0.4-0.7-1.2-0.9-1.1
		C94.5,58.7,93.5,59.2,92.4,59.8z M268.2,359.4c0.1-0.1,0.3-0.2,0.4-0.4c-0.5-0.6-1-1.1-1.4-1.7c-0.3-0.4-0.7-0.8-0.8-1.2
		c-0.2-1.2-0.3-1.3-1.8-0.6C265.9,356.8,267.1,358.1,268.2,359.4z M95.7,92.1c0.1,0,0.3,0,0.4,0.1c0.8-2,0.7-4.1,0.9-6.2
		c-0.1,0-0.3,0-0.4-0.1C96.3,88,96,90.1,95.7,92.1z M277.3,366.1c0.5,1.7,3.2,3.2,4,2.6C279.9,367.8,278.6,367,277.3,366.1z
		 M314.4,119.2c0-0.1,0-0.2,0-0.3c-2.5,0-4.9,0-7.4,0c0,0.1,0,0.2,0,0.3C309.4,119.2,311.9,119.2,314.4,119.2z M93.7,126.3
		c-0.1-1.2-0.3-2.1-0.4-3.2c-0.4,1.1-0.7,1.9-1.1,2.7C92.6,126,93,126.1,93.7,126.3z M255.3,340.6c-0.1,0.1-0.2,0.1-0.3,0.2
		c0.7,1.4,1.4,2.8,2,4.1c0.2-0.1,0.3-0.2,0.5-0.3C256.8,343.3,256,342,255.3,340.6z M315.9,118.9c0,0.1,0,0.1,0,0.2
		c1.6,0,3.3,0,4.9,0c0-0.1,0-0.1,0-0.2C319.2,118.9,317.5,118.9,315.9,118.9z M338.1,363.9c0.1-0.2,0.2-0.4,0.3-0.6
		c-1.2-0.6-2.5-1.2-3.7-1.8c-0.1,0.1-0.1,0.2-0.2,0.4C335.7,362.6,336.9,363.3,338.1,363.9z M257.4,306.6c-0.1,0.1-0.3,0.2-0.4,0.3
		c0.7,0.9,1.5,1.8,2.2,2.7c0.1-0.1,0.3-0.2,0.4-0.3C258.9,308.4,258.1,307.5,257.4,306.6z M252.4,226.2c0,0.1,0,0.2,0,0.2
		c1.1,0,2.3,0,3.4,0c0-0.1,0-0.2,0-0.2C254.7,226.2,253.5,226.2,252.4,226.2z M180.3,218.9c-0.1,0.2-0.2,0.4-0.3,0.6
		c0.6,0.2,1.1,0.5,1.7,0.7c0.1-0.1,0.1-0.2,0.2-0.4C181.3,219.5,180.8,219.2,180.3,218.9z"/>
	<path d="M89.1,197c1.4-0.3,2.6-0.4,3.6-0.7c1.2-0.4,1.2-0.7,0.6-1.9c-0.5-0.9-1.6-1.5-1.3-2.8c0-0.2,0.1-0.4,0.1-0.7
		c3,1.7,6.1,0.8,9.1,0.4c0.2,0,0.6-0.3,0.6-0.4c-0.1-1.7,1.1-1.3,1.9-1.4c0.7-2,2.6-2.8,3.9-3.6c-0.7-1.4-1.4-2.7-1.8-4
		c-1.3-4.1-2.7-8.2-3.6-12.3c-0.8-3.2-1.1-6.5-1.4-9.7c-0.6-5.9-1.4-11.8-1.6-17.8c-0.2-6.9,0.1-13.8,0.2-20.7
		c0.1-3.6,0.2-7.3,0.5-10.9c0.5-6.1,1.1-12.1,1.6-18.1c0.5-5.6,0.8-11.2,1.1-16.8c0-0.8-0.4-1.7-0.6-2.5c-0.1-0.3-0.2-0.7,0-0.9
		c0.7-1.5,0.1-2.9-0.4-4.2c-0.3-0.6-0.9-1.2-1.4-1.5c-1.7-0.9-3.4-1.6-5.2-2.4c1.1-1.6,3.3,0.5,4.4-1.4c1.2,1.1,2.5,0.4,3.7,0.2
		c0.3,0,0.7-0.8,0.8-1.2c0.1-1.1,0-2.2,0-3.2c1.1,0.5,2.3,1.1,3.5,1.6c0.1-0.1,0.3-0.1,0.4-0.2c-0.1-1-0.2-2.1-0.3-3
		c1.4,0.5,2.9,1.1,4.4,1.6c0.1-0.1,0.2-0.1,0.2-0.2c0.1-0.6,0.3-1.1,0.4-1.7c0.5,0.3,1.1,0.6,1.5,1c0.6,0.6,1.1,1.3,1.8,2.2
		c0.7-1.2,1.2-2.1,0.7-3c-0.4-0.8,0-1.2,0.7-1.4c0.9-0.1,1.7-0.1,2.6,0.5c0.8,0.6,2.1,0.5,3.2,0.5c1,0,2-0.3,2.9-0.4
		c4.4-0.2,8.7-0.4,13.1-0.7c0.8,0,1.6,0,2.4-0.1c2.6-0.2,5.1-0.4,7.7-0.7c3.8-0.3,7.6-0.7,11.4-1.1c5-0.5,10-1.1,14.9-1.7
		c2-0.2,4-0.7,6-1c0.6-0.1,1.2-0.1,1.8-0.1c1.3,0,2.7,0.3,3.9-0.1c2.6-0.9,5.3-0.2,7.9-0.7c1.8-0.4,3.5-0.8,5.3-1.2
		c0.6-0.1,1.2,0.1,1.8,0.2c0.6,0,1.1,0.1,1.7,0.1c1,0,2.1-0.4,3-0.2c2.5,0.5,4.7-0.5,6.9-1.2c1.2-0.4,2.4-0.7,3.6-0.9
		c1.1-0.2,2.2,0,3.2-0.1c1-0.1,2,0.1,2.8,0.8c0.9,0.7,1.8,0.5,2.8,0c-0.5-0.1-1.1-0.2-1.6-0.3c0-0.1,0-0.2,0-0.3
		c2-0.4,3.9-0.9,6.1-1.4c-0.6,1.9-2.6,0.9-3.4,2.3c0.7-0.1,1.4-0.2,2.2-0.3c0.5-0.1,0.9-0.3,1.4-0.3c1.5,0,2.9,0.1,4.4,0.1
		c2.6,0,5.2,0,7.8,0.1c1.3-1.3,2.9-0.1,4.1-0.6c2.3-0.9,4.6-0.6,6.9-0.7c0.3,0,0.6,0.3,0.9,0.4c0.3,0.1,0.5,0.5,0.8,0.5
		c1.5,0,3-0.3,4.5-0.2c1.5,0.1,2.8-0.4,4.2-0.8c0.4-0.1,1.1,0.2,1.4,0.6c0.7,0.6,1.4,0.7,2,0.1c0.9-0.9,1.9-0.8,3.1-0.7
		c-0.1,0.4-0.2,0.6-0.2,0.9c0.2,0,0.3,0.1,0.4,0.1c0.1,0,0.2,0,0.2,0c2.3,0.7,4.1-1.7,6.4-1c0.4,0.1,0.7,0.5,1.1,0.7
		c0.7,0.4,1.4,0.9,2.1,1c0.8,0.2,1.8,0,2.6-0.1c2.5-0.2,4.9-0.4,7.4-0.6c1-0.1,2-0.3,2.9-0.4c0.4,0,0.8,0.1,1.4,0.3
		c-1.4,0.9-3.1-0.3-4.2,1.3c0.6,0.1,1,0.3,1.4,0.2c9.5-0.1,18.9-0.1,28.4-0.4c2.6-0.1,5.4-0.1,7.8-1.7c0.4-0.3,0.9-0.3,1.4-0.5
		c0.1,0.1,0.1,0.2,0.2,0.3c-0.3,0.2-0.5,0.4-0.8,0.5c-2,0.7-3.5,2-4.7,3.8c-0.3,0.4-0.9,0.6-1.5,0.7c-2.1,0.5-4.4,0.3-6.5,1.3
		c-0.9,0.4-2.1,0.3-2.8,0.8c-0.9,0.7-1.8,1.7-2.2,2.8c-0.2,0.5,0.8,1.5,1.4,2.1c0.4,0.4,1.1,0.5,1.9,0.7c-0.3,0.2-0.4,0.3-0.6,0.3
		c-2.9,0.3-5.9,0.5-8.8,0.8c-1,0.1-2.1,0.3-3.1,0.3c-1.8,0.1-3.6,0.3-5.4,0.2c-1.9,0-3.8,0.3-5.6,0.9c-1.2,0.4-2.5,0.3-3.8,0.5
		c-2.5,0.3-5,0.6-7.6,0.9c-0.6,0.1-1.3,0.2-1.8,0.5c-0.3,0.1-0.5,0.8-0.4,1.1c0.4,0.7,0.9,1.3,1.4,1.9c1.4,1.6,2.2,3.4,2.6,5.5
		c1,4.2,0.4,8.5,0.3,12.7c0,1.8-0.1,3.6-0.1,5.3c0,2.2-0.1,4.3,0,6.5c0.1,2.7,0.5,5.4,0.8,8.1c0,0.4,0.1,0.8,0.2,1.2
		c0.4,3,0.7,6,1.1,9c0.2,1.4,0.4,2.7,0.6,4.1c0.1,0.4,0.5,0.7,0.8,0.9c0.8,0.4,1.6,0.7,2.6,1.1c0-2.5,0.1-4.7,0-6.9
		c-0.2-3.2-0.7-6.3-1-9.5c-0.3-2.8-0.7-5.5-1-8.3c-0.1-1-0.3-2-0.4-3c-0.6-4.8-1.6-9.5-0.8-14.4c0.1-0.9,0.5-1.7,0.7-2.5
		c1.6,3.6,3.1,7.3,3.3,11.4c0.2,3,0.9,6,1.3,9c0.3,2.3,0.7,4.7,0.9,7c0.3,3,0.4,6,0.6,8.9c0.1,1.7,0.3,3.4,0.6,5.1
		c0.1,0.3,0.6,0.6,0.7,0.6c-0.2,0.8-0.6,1.4-0.5,2c0.1,0.8,0.9,0.8,1.7,0.7c1.7-0.1,3.4-0.1,5-0.1c1.7,0.1,3.5,0.3,5.2,0.3
		c4.8-0.1,9.7-0.2,14.5-0.3c0.4,0,0.7,0.1,1.1,0.2c0,0.1,0,0.3,0,0.4c-1.7,0.2-3.3,0.3-5,0.5c0,0.2-0.1,0.3-0.1,0.5
		c0.4,0.2,0.8,0.6,1.2,0.7c1.9,0.2,3.8,0.2,5.7,0.4c1.9,0.1,3.7,0.3,5.6,0.5c0.4,0,0.8,0.2,1.2,0.2c4,0.2,8,0.4,11.9,0.6
		c4.4,0.2,8.8,0.5,13.2,0.7c4.5,0.2,8.9,0.4,13.4,0.6c1.6,0.1,3.1,0.4,4.7,0.6c0,0.1,0,0.2,0,0.3c-1.1-0.1-2.3-0.2-3.4-0.2
		c-4,0.1-8.1,0.3-12.1,0.4c-1.7,0-3.4-0.3-5.1-0.1c-4.4,0.7-8.8-0.2-13.2,0.2c-2.9,0.2-5.8,0.2-8.5,1.5c-0.7,0.3-1.6,0.2-2.5,0.4
		c-0.9,0.2-1.9,0.6-2.8,0.8c-1,0.2-1.9,0.4-2.9,0.7c-1.1,0.3-2.2,0.6-3.3,0.9c1.3,1.1,2.3,2,3.4,2.8c0.6,0.4,1.4,0.4,2.1,0.9
		c-0.3,0.1-0.5,0.2-0.8,0.2c-4.3,0.2-8.5,0.2-12.8,0.6c-3.5,0.3-6.9,0.9-10.4,1.3c-0.5,0.1-0.9,0.3-1.3,0.5
		c-1.1,0.5-2.2,1.2-3.4,1.6c-1.1,0.3-1.3,0.9-1.2,1.9c0.2,3.2,0.3,6.4,0.5,9.6c0,1,0.1,1.9,0,2.9c0,0.6-0.4,1.2-0.5,1.7
		c-0.2,0.6-0.4,1.1-0.4,1.7c-0.1,1.9,0,3.7,0,5.6c-0.1,0-0.3,0-0.4,0.1c-0.3-1.8-0.7-3.7-1-5.5c-0.1-0.8-0.3-1.3-1-0.9
		c-0.2-5.5-0.3-11.1-0.5-16.9c-0.6,0.2-0.9,0.3-1.2,0.4c-0.7,0.3-1.3,0.8-1.9,1.1c-1.1,0.4-1.1,1.3-1,2.2c0.2,3.5,0.3,7,0.6,10.5
		c0.2,2.7,0.7,5.4,0.9,8.1c0.1,1.7,0.1,3.4,0,5c0,0.4-0.4,1.1-0.7,1.2c-0.9,0.2-1,0.8-0.9,1.4c0.3,2-0.6,3.5-1.8,5
		c-0.3,0.3-0.4,0.8-0.4,1.3c-0.2,0.9-0.2,1.8-0.4,2.7c-0.2,1,0.3,1.7,1.5,1.9c0.7,0.1,1.4,0.1,2.1,0.3c2.6,0.7,5.3,1.4,7.9,2.2
		c1.1,0.3,0.9,1.1,0.5,1.8c-0.6,1.4-0.5,1.6,1,1.7c1.2,0.1,2.3,0.3,3.6,0.4c-1.3,1.2-2.3,2.4-3.5,3.3c-0.6,0.4-1.5,0.6-2.2,0.6
		c-1.9,0.2-3.8,0.2-5.7,0.4c-2.4,0.2-4.4,2.2-4.7,4.5c-0.3,1.6,1,2.9,2.2,3.4c0.4,0.2,0.8,0.3,1.6,0.5c-0.6,0.2-0.8,0.3-1,0.3
		c-2.3,0.1-4.7,0.2-7,0.3c-1.9,0.1-3.9,0.5-5.8,0.5c-2.7,0-5.5-0.2-8.2-0.3c-0.2,0-0.4-0.1-0.5,0c-1.3,1-2.7,0.4-4,0.3
		c-2.4-0.1-4.8,0.1-7.1,0.1c-1.1,0-2.2-0.1-3.3-0.2c-2.6-0.1-5.2-0.4-7.8-0.4c-3.2,0-6.3,0.1-9.5,0.1c-1.7,0-3.3,0.2-5,0.3
		c-3.1,0-6.2-0.1-9.3,0c-1.3,0-2.5,0.2-3.8,0.3c-1.6,0-3.2-0.1-4.8-0.1c-0.8,0-1.4,0.2-1.6,1.2c-0.4,2.5-0.9,4.9-1.3,7.3
		c-0.3-0.4-0.7-0.9-1.1-1.4c-0.4,0.5-0.8,1-1.3,1.6c-0.8-0.3-0.7-0.9-0.6-1.7c0.3-1.7,0.6-3.4,0.8-5.1c0.1-0.9-0.2-1.5-1.3-1.5
		c-1.6,0-2,0.2-2,1.4c-0.1,3.9-0.1,7.7-0.1,11.6c0,2,0.1,4.1,0,6.1c-0.1,0.9-0.6,1.8-0.8,2.7c-0.2,0.7-0.3,1.5-0.3,2.2
		c0,0.2,0.7,0.6,1,0.6c1.5,0,3-0.1,4.5-0.2c5.5-0.2,11.1-0.3,16.6-0.4c3.2-0.1,6.4-0.3,9.6-0.4c0.7,0,1.3,0.4,2,0.5
		c0.4,0.1,0.9,0.3,1.4,0.2c1.6-0.2,3.2-0.4,5.1-0.6c-0.4,0.4-0.6,0.7-0.8,1c-0.8,0.9-0.7,1.6,0.5,1.7c1.3,0.1,2.7,0.2,4.1,0
		c1.2-0.2,2.3-0.7,3.6-1c0.7-0.1,1.5,0.1,2.3,0.2c0,0.1,0,0.3,0,0.4c-0.5,0.3-1,0.6-1.5,0.9c-1.4,0.7-2.8,1.4-4.3,2
		c-0.8,0.3-1.7,0.3-2.5,0.5c-2.3,0.7-4.6,1.5-6.8,2.2c-0.3,0.1-0.6,0.2-0.9,0.1c-1.1-0.1-2.4-0.5-2.6,1.3c-1.7,0.6-2.1,2.9-4.3,2.9
		c-0.5,0-1.4,0.9-1.4,1.2c0.2,0.7,0.8,1.4,1.3,2c0.1,0.2,0.4,0.2,0.9,0.5c-0.5,0.2-0.8,0.4-1,0.4c-3.5,0.5-7,1-10.4,1.6
		c-2.1,0.4-4.2,1.1-6.3,1.7c-2,0.6-4,1.4-6,1.9c-0.9,0.2-1.9,0-2.8,0.2c-2.2,0.6-2.6,1.3-2.6,3.6c0,1.8-0.3,3.6-0.1,5.4
		c0.1,1.2,0.8,2.3,1.3,3.4c0.4,0.9,1.3,1.5,0.7,2.9c-0.3,0.7,0.6,1.9,0.9,2.8c0.1,0.3,0.2,0.5,0.3,0.8c0.8,2,1.1,2.2,3.4,2
		c2.2-0.2,4.4-0.2,6.5-0.3c2.2-0.1,4.4-0.2,6.7-0.3c0.3,0,0.6-0.3,0.9-0.3c1.1-0.2,2.1-1,3.3-0.2c0.4,0.3,1.3,0.1,1.8-0.1
		c1.3-0.5,2.5-0.4,3.8-0.1c0.6,0.2,1.3,0,1.9,0c1.8-0.1,3.6-0.2,5.4-0.3c0.8,0,1.6,0,2.3-0.2c2.9-0.9,5.9-0.4,8.9-0.5
		c2.6-0.1,5.3-0.2,7.9-0.6c1.6-0.3,3.1-0.2,4.7-0.3c1.9-0.1,3.7-0.5,5.5-0.6c2.2-0.1,4.3,0,6.5-0.1c1.1,0,2.1-0.2,3.1-0.5
		c1.5-0.4,3-0.5,4.5-0.1c0.3,0.1,0.6,0,0.9,0c1.9,0,3.7,0,5.6-0.1c1.8-0.1,3.5-0.3,5.3-0.4c1.3-0.1,2.5-0.4,3.7-0.5
		c0.1,0,0.4,0,0.4,0.1c0.2,1.4,1.3,0.8,2,0.7c4.1-0.2,8.1-0.5,12.1-0.7c0.7,0,1.5-0.2,2,0.9c0.1,0.3,1.4,0.4,2.2,0.3
		c3.1-0.6,6.1-1.5,8.9-2.9c0.1-0.1,0.3,0,0.8,0c-1.2,0.6-2.1,1.1-3,1.4c-0.9,0.3-1.8,0.7-2.2,1.7c-1,2.2-3.2,2.5-5.2,3
		c-0.4,0.1-0.8,0.1-1.1,0.4c-1.1,0.9-2.4,0.7-3.6,1c-1.5,0.3-3.1,0.9-4.5,1.6c-1.1,0.6-0.9,4.7,0.2,5.4c0.4,0.3,1,0.2,1.5,0.3
		c0.3,0.1,0.5,0.2,0.8,0.6c-0.4,0.2-0.8,0.4-1.3,0.5c-3.8,0.6-7.5,1.1-11.3,1.6c-2.8,0.4-5.6,0.9-8.4,1.3c-1.1,0.2-2.3,0.1-3.4,0.3
		c-1.4,0.4-2.7,1-4,1.5c-0.8,0.3-1.7,0.5-2.5,0.6c-4.8,0.4-9.5,0.7-14.3,1.2c-3.1,0.3-6.2,0.7-9.3,0.9c-3.4,0.3-6.8,0.3-10.1,0.9
		c-1.9,0.4-3.7,0.6-5.6,0.7c-2.8,0.2-5.6,0.3-8.3,0.5c-2.8,0.2-5.5,0.6-8.3,0.9c-3.3,0.3-6.5,0.4-9.8,0.7c-4.1,0.4-8.2,1-12.2,1.4
		c-2.1,0.2-4.1,0.2-6.2,0.3c-0.4,0-0.8,0-1.2,0.1c-1.2,0.2-2.4,0.4-3.7,0.5c-3.4,0.3-6.7,0.7-10.1,1c-2.1,0.2-4.2,0.2-6.3,0.3
		c-4.5,0.4-9,0.8-13.4,1.2c-2.9,0.2-5.7,0.3-8.6,0.5c-5.8,0.5-11.6,1-17.4,1.5c-3.9,0.3-7.7,0.6-11.6,0.8c-2.1,0.1-4.2,0-6.3,0.1
		c-3.3,0.2-6.6,0.5-9.9,0.6c-3.3,0.1-6.5,1.1-9.8,0.4c-2.1-0.5-4.2-0.8-6-2.6c-1.1-1.1-3-1.5-4.6-2.2c-0.2-0.1-0.4-0.1-1-0.3
		c1-0.4,1.7-0.6,2.6-1c-1.9-1.8-3.5-3.3-5.2-4.9c0-0.1,0.1-0.2,0.1-0.3c1.1,0.1,2.2,0.2,3.4,0.2c0.5,0,1,0,1.4-0.2
		c1.2-0.8,1.2-1.5,0-2.4c-0.5-0.3-1.1-0.6-1.5-0.9c-1.3-0.9-2.7-1.9-4.3-3.1c0.5,0,0.8-0.1,1-0.1c1.5,0.6,2.9,0.9,4.7,0.4
		c2.1-0.5,4.5,0,6.8,0.2c1.5,0.2,2.8,0.1,4.2-0.4c-0.6-2.3-0.6-2.3,0.6-2.5c-0.1-1.2,1.5-3,2.9-3.1c4.2-0.3,8.4-0.5,12.7-0.7
		c3.3-0.1,6.7-0.3,10-0.3c2.2,0,4.5,0.2,6.7,0.3c0.5,0,1,0.1,1.6,0.1c3.9-0.3,7.7-0.8,11.6-1c5.2-0.4,10.4-0.6,15.6-0.8
		c2.3-0.1,4.5,0,6.8,0c1.9-0.1,3.7-0.3,5.6-0.4c2.1-0.1,4.3-0.1,6.4-0.3c1.2-0.1,2.4,0,3-0.9c1.1,0.2,2,0.4,2.9,0.4
		c2.5,0,5,0,7.5-0.2c1.4-0.1,2.9-0.5,4.3-0.8c0.2-0.1,0.6-0.6,0.5-0.9c-0.2-0.8-0.6-1.6-0.9-2.4c-0.2-0.5-0.4-1.1-0.6-1.7
		c-0.1-0.5-0.1-1-0.2-1.4c-0.4-1.6-0.4-1.6-2.1-1.3c-0.2,0-0.3,0-0.5,0c-1.6,0-2.2,1-1.5,2.5c0.2,0.3,0.3,0.7,0.5,1
		c-0.1,0.1-0.2,0.2-0.3,0.2c-0.3-0.2-0.7-0.4-0.8-0.8c-0.6-1.4-0.9-2.8-0.6-4.4c0.3-1.5,0.3-3.2,0.4-4.8c0-0.2-0.2-0.5-0.3-0.5
		c-1.2-0.2-0.7-0.9-0.6-1.6c0.1-1.1,0-2.3,0-3.5c-0.2,0-0.3,0-0.5,0c-0.6,2.5-1.2,5.1-1.7,7.6c-0.1,0-0.2,0-0.3-0.1
		c0-1.3,0-2.6,0-3.9c0-1,0-1.9,0.1-2.9c0-0.8-0.3-1-1.1-1c-5.7,0.2-11.4,0.6-17.1,0.6c-4.1,0-8.2-0.5-11.6-3.4
		c-0.6-0.5-1.5-0.6-2.3-1c-1.3-0.6-1.4-1.1-0.1-2c-1.4-2.4-4.9-2.9-5.4-6.3c2,0,4,0,6.2,0c-1.4-2.1-2.6-3.9-3.8-5.6
		c-0.2-0.3-0.2-0.6-0.4-0.9c-0.3-0.5-0.7-1-1-1.5c0.1-0.1,0.5-0.3,0.6-0.6c0.1-0.9,0.7-0.8,1.3-0.7c0.7,0.1,1.2,0.4,1,1.3
		c-0.2,1.2,0.3,2,1.5,2.3c3.6,1,7.2,0.9,11.1,1c-0.3-0.7-0.4-1.1-0.6-1.5c-0.7-1.2-0.2-2.5,0.4-3.3c0.5-0.7,1.9-1,2.9-1
		c2.6,0,5.1,0.3,7.7,0.3c3.8,0.1,7.6,0.1,11.4,0c0.9,0,1.2-0.5,1.2-1.5c-0.4-4.8-0.6-9.6-1-14.4c-0.2-2.3-0.4-4.7-0.7-7
		c0-0.3-0.6-0.7-0.9-0.8c-1.2-0.1-2.4,0-3.6,0c-1.6,0-1.8,0.3-2,1.9c-0.2,1.5-0.3,3.1-0.5,4.6c0,0.4-0.2,0.7-0.6,1
		c0-0.2-0.1-0.4-0.1-0.6c0-1.7,0-3.5,0-5.2c0-1-0.4-1.4-1.4-1.3c-1.3,0.2-2.7,0.4-4,0.5c-5.2,0.5-10.5,0.9-15.7,1.4
		c-1.2,0.1-2.3,0-3.5,0.1c-2.3,0.2-4.6,0.5-6.8,0.8c-1.2,0.2-2.4,0.4-3.7,0.5c-5.4,0.6-10.7,1.3-16.1,1.8c-2.5,0.2-5,0.1-7.5,0.1
		c-1,0-2.1,0.3-3.1,0.4c-0.7,0.1-1.4,0.2-2.1,0.2c-2.3,0-4.7,0.2-7-0.1c-2.1-0.2-4.2-0.8-6.2-1.4c-1.5-0.5-2.9-1.3-4.3-2
		c-0.7-0.4-0.8-0.9,0.1-1.2c0.7-0.2,0.6-0.5,0.3-1.1c-0.7-1.2-1.5-2.2-2.8-2.9C90.7,199.5,90,198.1,89.1,197z M209.5,91.5
		c0.1,0,0.3,0,0.4,0c0.3,1.2,0.6,2.3,0.9,3.4c0.1,0.3,0.3,0.5,0.5,0.7c0.3,0.4,0.7,0.9,0.7,1.3c0.3,2.6,0.6,5.3,0.9,7.9
		c0.2,1.4,0.6,2.7,0.7,4c0.2,3.1,0.2,6.2,0.4,9.3c0.1,0.8,0.5,1.7,1,2.4c0.3,0.3,1.1,0.3,1.7,0.3c2.7,0,5.3,0,8,0
		c0.6,0,1.3,0.1,1.7,0.5c0.9,0.9,1.7,1.1,2.7,0.5c0.4-0.2,0.9-0.5,1.3-0.5c1.8-0.1,3.6-0.2,5.3-0.2c3.3,0,6.6,0,9.9,0
		c3.9,0,7.9,0,11.8,0.1c1.9,0,3.9,0.2,5.8,0.4c0.7,0.1,1-0.1,0.9-0.8c-0.2-2.1-0.3-4.1-0.6-6.2c-0.2-1.5-1-2.8-1.2-4.3
		c-0.3-2.2-0.6-4.5-0.6-6.8c0-6.7,0.2-13.4,0.4-20.1c0-1,0-2.1,0.1-3.1c0.1-2.2,0.3-4.3,1-6.4c0.9-2.6,0.6-5.7,0.8-8.6
		c0-0.3-0.6-0.8-0.9-0.8c-0.8,0-1.6,0.2-2.4,0.2c-2.7,0-5.3,0-8,0c-2.8,0-5.5,0-8.2,0.1c-1.1,0-2.1,0.4-3.2,0.4
		c-2,0.1-4,0.1-6.1,0.2c-0.8,0-1.6,0.1-2.4,0.1c-3,0.2-5.9,0.4-8.9,0.6c-1.9,0.1-3.9,0.3-5.8,0.5c-3.7,0.3-7.3,0.8-11,1.1
		c-3.1,0.3-6.2,0.4-9.3,0.6c-1.4,0.1-2.8,0.4-4.2,0.6c0.6,2.1,1.1,3.1,2.7,3.9c1.2,0.6,2.4,1.1,2.5,2.7c0,0.1,0.1,0.1,0.1,0.2
		c1.2-0.6,2.5-0.5,3.1,0.9c0.1,0.3,0.4,0.5,0.6,0.8c2.1,2.5,3.1,5.4,3.2,8.5c0.1,1.9,0.1,3.8-0.1,5.6c-0.2,2.6,0.6,5.2-0.4,7.8
		c0,0.1,0.1,0.3,0.1,0.5c0,1.5,0.1,3.1,0,4.6c0,1.3-0.2,2.7-0.3,4c0,0.5,0,1,0,1.4c0,2.9,0,5.8,0.1,8.7c0,0.3,0.2,0.7,0.5,0.8
		c1.4,0.7,2.4,0,2.4-1.6c0-0.3-0.1-0.6-0.1-0.8c0.1-3.1,0.1-6.2,0.2-9.3c0-0.7,0.3-1.4,0.3-2.1c0.1-1.1-0.2-2.4,0.1-3.4
		c0.9-2.7,0.2-5.3,0.2-7.9C209.5,93.3,209.5,92.4,209.5,91.5z M191.4,89.8c0,0,0.1-0.1,0.1-0.3c1-5,2.2-9.9,2.1-15
		c0-1.4-0.1-2.9-0.3-4.3c-0.2-1.3-0.7-1.4-2-1.2c-1.9,0.3-3.8,0.5-5.7,0.8c-3.1,0.4-6.2,0.7-9.3,1.1c-3.4,0.4-6.9,1-10.3,1.4
		c-3.3,0.4-6.6,0.8-9.9,1.2c-3.2,0.4-6.4,0.8-9.7,1.2c-2.4,0.3-4.9,0.4-7.2,0.9c-2.5,0.5-5,0.9-7.6,0.8c-1.2,0-1.7,0.6-1.5,1.8
		c0.1,0.5,0.1,1,0.1,1.5c0,2.6,0,5.2-0.2,7.9c-0.2,2.8-0.4,5.6-0.7,8.5c-0.3,3.1-0.9,6.2-1.2,9.4c-0.2,1.8-0.1,3.7-0.2,5.5
		c-0.1,1.5-0.6,2.9-0.7,4.4c-0.3,3.3-0.4,6.6-0.6,9.9c-0.1,1.8-0.1,3.5-0.3,5.3c-0.1,1.6,0,1.9,1.7,1.6c4-0.6,8-1.2,11.9-1.8
		c2.5-0.4,4-2.3,5.6-4c0,0,0-0.1-0.1-0.3c-0.8,0-1.6,0-2.4,0c0.2-0.4,0.4-0.7,0.7-0.8c3.1-0.8,6.2-1.6,9.3-2.2
		c3.2-0.6,6.3-1.1,9.5-1.6c0.9-0.1,1.9-0.1,2.8-0.1c1.2-0.1,2.3-0.2,3.5-0.4c0.7-0.1,1.3-0.6,2-0.6c1.2-0.1,2.5,0,3.7-0.1
		c1.9-0.2,3.7-0.6,5.6-0.8c0.8-0.1,1.7-0.2,2.5-0.2c0.2,0,0.5,0.3,0.7,0.5c-0.2,0.2-0.5,0.6-0.7,0.6c-1.5-0.3-2.9,0.2-4.3,0.5
		c-1.2,0.2-2.4,0.3-3.5,0.6c-0.4,0.1-0.8,0.6-1.1,0.9c0.5,0.3,1,0.8,1.5,0.9c0.9,0.1,1.7-0.3,2.6-0.3c2.1-0.1,4.2-0.3,6.3-0.2
		c1.2,0,1.5-0.1,1.6-1.3c0-1,0-2,0-3c0.2-5.1,0.5-10.1,0.7-15.2c0.1-2.6,0.3-5.2,0.5-7.8c0.2-2.3,0.6-4.6,0.7-6.9
		c0.1-1.3-0.1-2.7-0.2-4.1c0-0.5,0.2-1,0.2-1.5c0.1,0,0.3,0,0.4,0c0.1,0.5,0.2,1,0.4,1.6c0.2,0.8,0.2,1.6,0.6,2.3
		C189.9,87.7,190.7,88.7,191.4,89.8z M120.4,114.7c-0.1,0-0.3,0.1-0.4,0.1c-0.3,0.9-0.7,1.8-0.8,2.7c-0.3,2.3-0.4,4.6-0.5,7
		c-0.1,2.5-0.1,5.1-0.1,7.6c0.1,6.8,0.2,13.6,0.4,20.4c0.1,2.9,0.5,5.8,0.7,8.7c0.1,1.8,0.1,3.5,0.1,5.3c0,0.3-0.2,0.5-0.3,0.8
		c-1.8,2.5-1.7,5.5-2,8.3c-0.2,1.6,0.2,3.3-0.1,5c-0.2,1.3-0.5,1.7-1.8,1.7c-0.4,0-0.9,0-1.3,0c-1.2,0-2.4,0.8-2.6,2
		c-0.1,0.3,0.1,0.9,0.2,0.9c1,0.2,2,0.4,3,0.4c1.1,0,2.2-0.4,3.3-0.4c2.5,0,5,0.2,7.5,0c4.6-0.3,9.2-0.7,13.8-1.1
		c4.7-0.4,9.4-0.9,14.2-1.2c1.6-0.1,3.3,0.2,5,0.3c1.1,0,2.2,0.4,3.1-0.2c0-0.1,0-0.2,0-0.4c-0.6-0.1-1.2-0.2-1.8-0.3
		c1.8-0.2,3.6-0.5,5.4-0.7c3.2-0.3,6.4,0.4,9.6-0.5c0.9-0.2,1.7-0.3,2.4-1c-0.5-1.5,0.2-2.8,0.5-4.2c0.2,1.2,0.3,2.3,0.2,3.4
		c0,0.8,0.2,1.2,1.1,1.2c1.3-0.1,2.6-0.1,3.8-0.1c0.9,0,1.4-0.5,1.4-1.5c-0.1-2-0.1-4,0-6c0.2-7.1,0.4-14.2,0.6-21.3
		c0.1-2.9,0.1-5.9,0.1-8.8c0-0.8-0.4-1.1-1.1-1.1c-1.4,0-2.8,0-4.2,0c-0.3,1.9-0.5,3.7-0.8,5.5c-1-1-1.5-2-0.7-3.2
		c0.6-1-0.1-2-1.4-1.9c-2.1,0.1-4.2,0.4-6.3,0.5c-3.3,0.2-6.7,0.4-10,0.6c-0.3,0-0.5-0.1-1.1-0.2c0.9-0.2,1.5-0.4,2.1-0.6
		c0-0.2-0.1-0.3-0.1-0.5c-0.6,0.1-1.3,0.1-1.9,0.2c-2,0.2-4.1,0.3-6.1,0.5c-2.1,0.2-4.2,0.4-6.3,0.6c-0.8,0.1-1.2-0.3-1-1.1
		c0.2-0.7-0.2-1-0.8-1c-2.6,0.1-5.3,0.2-7.9,0.3c-1.4,0.1-2.8,0.1-4.1,0.2c1.1-0.4,2.3-0.6,3.4-0.8c1.1-0.2,2.2-0.3,3.3-0.5
		c0-0.1,0-0.2,0-0.3c-0.8-0.1-1.6-0.2-2.6-0.3c0.3-0.5,0.4-0.8,0.7-1.3c-0.7-0.3-1.4-0.7-2-0.7c-2.3,0.1-4.7,0.2-7-0.4
		c-0.6-0.1-1.3-0.1-1.4-1c-0.1-0.3-0.6-0.6-1.2-1c-0.3,2.7-0.5,5.1-0.8,7.4c-0.2,1.2-0.3,2.3,0.1,3.5c0.1,0.3,0.1,0.6,0,1
		c-0.1,1.4-0.2,2.7-0.3,4c-0.1,3.3-0.3,6.6-0.4,9.9c0,0-0.1,0-0.3,0.2c-0.1-0.6-0.2-1.2-0.4-1.8c-0.1-0.4-0.4-0.7-0.6-1
		c-0.3,0.3-0.7,0.5-0.9,0.8c-0.3,0.4-0.4,0.8-0.6,1.2c-0.1,0-0.3,0-0.4,0c0-0.9,0-1.8,0-2.7c0.1-2.3,0.5-4.7,0.4-7
		c-0.2-6.6-1.1-13.1-1.1-19.6c0-4.4-0.3-8.8-0.5-13.2C121,116.7,120.6,115.7,120.4,114.7z M213.9,141.3c-0.2,2.6-0.5,4.9-0.6,7.1
		c-0.1,1.3,0,2.6-0.1,3.9c-0.3,3.4-0.7,6.9-1,10.3c-0.1,1.6-0.1,3.3-0.3,4.9c-0.3,3.4-0.7,6.8-1.1,10.2c0,0.4-0.3,0.7-0.3,1.1
		c-0.1,0.4-0.1,0.9,0.1,1.2c0.1,0.2,0.8,0.2,1.1,0.1c1.2-0.5,2.8,0,3.7-1.4c0.1-0.1,0.3-0.1,0.5-0.1c0.9,0.2,1.7,0.6,2.6,0.7
		c2.3,0.2,4.7,0.2,7,0.3c0,0,0.1,0,0.1-0.1c0.9-1.2,2.1-1.1,3.4-1.1c3,0,6-0.3,8.9-0.3c3.3-0.1,6.6,0,9.9,0c2.5,0,5-0.1,7.4,0
		c2.1,0,4.2,0.1,6.3,0.2c2.8,0.1,5.6,0.3,8.3,0.4c1,0.1,1.3-0.4,1.2-1.3c-0.2-1.3-0.4-2.6-0.5-3.9c-0.5-4.1-1.1-8.3-1.6-12.4
		c-0.4-3-0.7-5.9-1-8.9c-0.2-1.7-0.4-3.4-0.5-5.1c-0.2-2.2-0.5-4.5-0.7-6.7c-0.2,0.1-0.3,0.2-0.5,0.3c-0.5-0.3-1-0.7-1.5-0.8
		c-0.4-0.1-1.3,0.1-1.4,0.3c-0.2,1.2-0.8,0.8-1.5,0.5c-0.7-0.3-1.5-0.8-2.2-1c-1.6-0.5-2.9,0.7-4.4,0.8c-1.7,0.1-3.3,0.7-5,0.8
		c-3.1,0.1-6.1-0.2-9.2-0.2c-2.7,0-5.5-0.1-8.2,0c-2.5,0-5,0.2-7.5,0.3C221.5,141.3,217.7,141.3,213.9,141.3z M204.6,161.1
		C204.6,161.1,204.5,161.1,204.6,161.1c-0.1,1.6-0.2,3.3-0.3,4.9c-0.3,4.3-0.6,8.5-0.9,12.8c0,0.7-0.2,1.5,1,1.6
		c1.5,0.1,2.4-0.3,2.4-1.4c0.1-3.2,0.2-6.5,0.2-9.7c0-1.8,0.2-3.7-0.1-5.5c-0.2-2,0.8-3.9,0-5.8c-0.1-0.2,0.1-0.5,0.1-0.7
		c0.2-2.7,0.4-5.3,0.6-8c0.1-2.1,0.1-4.2,0.4-6.3c0.2-1.6,0.3-1.6-1.3-1.5c-0.8,0-1.1,0.4-1.1,1.2c0,0.5,0,1,0,1.4
		C205.2,149.7,204.9,155.4,204.6,161.1z M267.1,74.1c0.1,0,0.2,0,0.3,0c0.3-1.2,0.6-2.5,1-3.7c0.4-1.2,1-2.4,1.5-3.6
		c0.3,0.2,0.7,0.5,1.4,0.9c0.3-0.9,0.5-1.6,0.8-2.5c0.3,0.1,0.6,0.2,1,0.3c0.2-0.6,0.4-1.1,0.6-1.8c-3,0.3-5.6,0.6-8.4,0.9
		C265.9,67.8,266.5,70.9,267.1,74.1z"/>
	<path d="M263.5,315.6c1,0.8,1.7,1.5,2.4,2.1c0.9,0.7,1.9,1.5,2.9,2.1c0.9,0.6,1.3,0.3,1.4-0.7c0-0.6,0.1-1.5,0.4-1.7
		c0.7-0.4,1.5,0,2.3,0.5c2.2,1.4,4.2,3,5.6,5.3c1,1.6,2.1,3.1,3.1,4.7c1.3,1.9,2.4,3.9,3.9,5.5c2.8,3.1,6.1,5.6,9.5,8.2
		c2.7,2.1,5.5,4.1,8.4,5.9c2.8,1.8,5.7,3.4,8.7,5c3.6,1.9,7.2,3.8,10.9,5.7c1.9,1,3.9,2,5.8,2.9c2,1,4.1,1.8,6.2,2.7
		c3.1,1.4,6.3,2.6,9.4,4.1c1.4,0.7,2.5,1.9,3.8,2.9c0.2,0.2,0.3,0.6,0.3,1c0.1,2.4,2.4,4.2,4.8,3.6c0.5-0.1,1-0.3,1.7-0.5
		c-0.3,1.5-1.4,2.1-2.2,2.9c-0.3,0.3-0.7,0.5-1,0.6c-2.1,0.5-3.7,1.8-5,3.5c-0.2,0.3-0.7,0.5-1.1,0.6c-0.4,0.1-0.8,0.1-1.2,0.3
		c-0.5,0.3-1.3,0.6-1.3,1c0,0.5,0.4,1.1,0.9,1.5c0.5,0.5,1.2,0.7,1.8,1.4c-0.5,0-1,0.2-1.5,0.1c-2.3-0.3-4.6-0.7-7-0.9
		c-1.4-0.2-2.9-0.1-4.3-0.5c-2.1-0.6-4.1-1.5-6.1-2.2c-1.3-0.5-2.7-0.7-3.9-1.3c-3.8-1.7-7.7-3.5-11.5-5.3c-2-0.9-3.9-2-5.8-3
		c-5.6-3.1-11.3-6.2-16.8-9.6c-4.5-2.7-8.8-5.7-12.9-8.9c-2.4-1.9-4.4-4.2-6.3-6.6c-1.6-2-2.9-4.2-4.3-6.4c-0.1-0.2-0.2-0.5-0.3-0.8
		c-0.8-3.5-1.6-6.9-2.3-10.4c0-0.2,0-0.4,0.3-0.7c0.7,1,1.4,2,2,3.1c0.5,0.9,1,1.7,2.1,2.2c0.7,0.3,1.1,1.2,1.6,1.9
		c0.6,0.9,1.2,1.8,1.8,2.7c0.1,0,0.2-0.1,0.3-0.1c-0.3-1.5-0.3-3-0.8-4.4c-1.1-3.1-2.3-6.2-3.5-9.3c-0.2-0.4-0.3-0.9-0.3-1.4
		c0.2-3.1-0.7-5.8-2.3-8.4C263.6,316.2,263.6,316.1,263.5,315.6z"/>
	<path d="M76.4,380.2c-0.7-4.5-2.1-5.4-5.1-5.7c0.7-1,1.2-1.9,1.9-2.7c0.8-0.9,1.2-1.8,1.4-3.1c0.3-2.2,0.5-4.4,1.3-6.4
		c0.8-2.1,2.1-4.1,3.3-6.1c1.4-2.3,2.8-4.6,4.3-6.8c0.7-1.1,1.5-2,2.2-3.1c0.4-0.6,0.6-1.4,0.9-2.1c0.5-0.8,1-1.7,1.5-2.4
		c0.9-1.1,1.9-2,2.7-3.1c0.8-1,1.3-2.2,2-3.2c1.4-1.9,2.8-3.7,4.2-5.5c0.5-0.6,1-1.2,0.1-2c1.9,0.6,3-0.5,3.9-1.6
		c1.8-2.2,3.5-4.5,5.1-6.8c0.6-0.9,1-0.9,1.8-0.2c1.3,1.3,1.8,1.3,2.6-0.4c0.7-1.6,2.1-2.6,3.5-3.3c1.2-0.5,2.7-0.7,4.1-0.1
		c2.1,0.8,3.5,2.5,4.9,4.1c0.7,0.8,1.5,1.7,2.3,2.4c0.6,0.6,1,0.2,1.3-0.4c0.8-1.3,1-1.3,2.2-0.5c0.3,0.2,0.5,0.4,0.8,0.5
		c1.3,0.6,1.8,2.1,0.9,3.2c-1.7,2.2-3.5,4.2-5.1,6.4c-0.5,0.7-0.9,1.6-1,2.5c-0.3,2.3-0.9,4.4-2.7,6.1c-2.3,2.1-4.4,4.3-6.5,6.6
		c-1.1,1.1-2.1,2.4-3.2,3.5c-1.2,1.1-2.6,1.9-3.9,2.9c-1.4,1.2-2.7,2.5-4.1,3.8c-0.5,0.4-1,0.7-1.5,1.1c-1,0.8-2.2,1.5-3,2.6
		c-0.6,0.8-1.2,1.4-2,1.9c-0.8,0.5-1.6,1.1-2.3,1.7c-2.8,2.6-5.5,5.3-8.3,7.9c-1,0.9-2.3,1.4-3.4,2.2c-1.1,0.8-2,1.8-3.1,2.6
		C79.3,377.9,77.9,379,76.4,380.2z"/>
	<path d="M164.2,365.5c0.6-5.2,1.1-10.6,1.8-16c0.5-4.4,1.3-8.7,0.8-13.1c-0.2-1.6,0.4-3,1.2-4.1c1.2-1.6,1.4-3.3,1.7-5.1
		c0.2-0.9,0.6-1.4,1.6-1.7c0.7-0.2,1.2-0.9,1.7-1.6c0.7-1,1.2-2.2,1.8-3.2c0.1-0.2,0.7-0.4,0.9-0.3c1.1,0.5,2.1,0.6,3.3,0.4
		c0.9-0.1,2.3,0.5,3,1.2c1.4,1.6,2.5,3.3,3.6,5.2c0.4,0.7,0.4,1.7,0.4,2.5c-0.1,1.8-0.3,3.7-0.4,5.5c0,0.6,0,1.3,0,1.9
		c0.1,1.6-0.4,3-1,4.5c-0.7,1.6-0.8,3.4-1.1,5.1c-0.1,0.6,0.2,1.3-0.8,1.6c-0.3,0.1-0.6,0.7-0.6,1.1c-0.3,1.4-0.4,2.8-0.6,4.2
		c-0.5,3-1,6.1-1.6,9.1c-0.4,2-1,4-1.8,5.9c-0.4,1-1,2.1-2.1,2.9c-0.7,0.5-1.2,1.5-1.4,2.4c-0.4,1.7-0.5,3.5-0.8,5.2
		c-0.1,0.6-0.2,1.2-0.4,1.7c-0.4,1.5-0.8,1.6-2.1,0.8c-1-0.6-1.8-1.3-2.8-1.9c-0.6-0.4-1.3-0.7-1.8-1.1c-0.5-0.4-1.2-0.8-1.3-1.3
		C164.9,373.5,164.6,369.6,164.2,365.5z"/>
	<path d="M227.4,323.1c0.1,0.5,0.4,0.9,0.4,1.4c-0.1,1.4,0.5,2,1.9,2.3c1.1,0.2,1.8,0.7,2,2.1c0.2,1.4,1,2.7,1.4,4.1
		c0.2,0.8,0.1,1.8,0,2.6c-0.1,1.5-0.3,3-0.3,4.5c0,2,0,4,0,5.9c0,0.7-0.2,1.4-0.3,2.1c-0.3,1.4-0.4,2.9-0.9,4.3
		c-0.4,1-1.1,1.9-1.8,2.8c-0.1,0.1-0.6,0.1-0.9,0c-1-0.6-1.3,0.1-1.3,0.8c0,1.1,0.1,2.1,0.2,3.2c0.1,1,0.2,2,0.3,3
		c0,0.3-0.2,0.7-0.4,0.8c-0.2,0.1-0.7,0-0.8-0.2c-0.7-0.8-1.6-1-2.7-1c-0.6,0-1.4-0.3-1.8-0.7c-1.5-1.3-2.9-2.3-3.7-4.4
		c-1.3-3.6-2.2-7.3-2.7-11.1c-0.1-0.4-0.3-0.9-0.7-1.2c-1.1-0.7-1.1-1.5-0.4-2.3c0.8-0.9,0.7-1.8,0.1-2.7c-0.3-0.4-0.4-0.9-0.5-1.3
		c-0.2-0.7,0.1-1.2,0.8-1.5c0.7-0.4,1.2-1,1.9-1.3c0.9-0.5,1.8-1,2.8-1.2c0.7-0.2,1-0.6,0.6-1.1c-0.7-0.9-0.2-1.3,0.4-1.8
		c0.1-0.1,0.1-0.1,0.2-0.2c1.6-0.9,2.3-2,1.1-3.7c-0.4-0.5-0.2-1,0.6-1.1c0.7-0.1,1.3-0.6,1.9-0.9c0.2-0.1,0.4,0,0.6,0
		c1.8,0.2,1.8,0.2,1.5-1.8c0-0.1,0.1-0.2,0.1-0.3C227.1,323.2,227.3,323.1,227.4,323.1z"/>
	<path d="M288.5,332.5c1.4-0.2,2,1,2.9,1.7c0.8,0.6,1.5,1.4,2.2,2.2c0.2,0.2,0.5,0.4,0.8,0.5c2.4,0.4,3.8,2.3,5.7,3.6
		c3.9,2.6,7.4,5.7,11.7,7.7c1.6,0.8,2.9,2.2,4.5,3.1c5.4,3.1,10.8,6.1,16.2,9.1c0.2,0.1,0.4,0.3,0.6,0.5c0,0.1-0.1,0.3-0.1,0.4
		c-0.8-0.3-1.8-0.4-2.5-0.8c-3.9-2-7.9-3.9-11.8-6.1c-2.5-1.4-4.8-3-7.2-4.4c-2.6-1.6-5.3-3.2-7.9-4.9c-0.2-0.1-0.4-0.2-0.6-0.4
		c-2.5-2.9-6-4.7-8.8-7.3c-1.6-1.5-3.4-2.8-5.1-4.1C288.9,333.1,288.8,332.8,288.5,332.5L288.5,332.5z"/>
	<path d="M282,369.9c1.1,0.1,2.1,0.2,3,0.3c0.2,0,0.5,0.3,0.7,0.5c0.5,0.5,0.8,1.2,1.4,1.6c4.1,2.3,8.2,4.5,12.4,6.7
		c0.9,0.5,2,0.6,3.1,1c0.6,0.2,1.1,0.5,1.8,0.9c-1.1,0.7-1.9,0.4-2.7,0.1c-2.5-1.1-5-2.1-7.4-3.4c-1.8-0.9-3.4-2-5.1-3
		c-1.1-0.6-2.2-1.2-3.3-1.8c-1-0.6-2-1.3-3-1.9C282.5,370.5,282.3,370.2,282,369.9z"/>
	<path d="M95.3,328.5c-1.1-0.1-1.5-0.6-1.6-1.4c-0.1-0.8,0.2-1.3,1.1-1.5c1.2-0.2,2.5-0.4,3.7-0.8c0.4-0.1,0.5-0.7,0.9-1
		c0.3-0.3,0.7-0.6,1.1-0.6c0.2,0,0.7,0.5,0.7,0.7c0,0.4-0.3,0.9-0.6,1.1c-0.7,0.5-1.6,0.7-2.3,1.2c-0.7,0.4-1.3,1-1.9,1.5
		C96,328,95.6,328.3,95.3,328.5z"/>
	<path d="M158.5,347.8c0-0.2-0.1-0.4-0.1-0.6c0.6-1.6,1.3-3.2,2-4.8c0.1-0.2,0.4-0.4,0.6-0.4c0.2,0,0.5,0.3,0.5,0.6
		C161.8,343.8,159.9,347.2,158.5,347.8z"/>
	<path d="M208.4,345c0.7-0.1,1.6-0.2,2.4-0.3c0,0.1,0.1,0.2,0,0.2c-1.5,1.5-1.5,1.9-0.7,3.9c0.3,0.7,0.2,1.5,0.3,2.3
		c-0.1,0-0.2,0.1-0.3,0.1c-0.3-1-0.7-2-1-3C208.7,347.1,208.6,346,208.4,345z"/>
	<path d="M208.4,355.2c-0.4-2.7-0.8-5.5-1.3-8.2c0.2,0,0.3-0.1,0.5-0.1C209,349.5,208.8,352.4,208.4,355.2z"/>
	<path d="M92.4,59.8c1.1-0.5,2.1-1,3.1-1.3c0.2-0.1,0.6,0.7,0.9,1.1c0,0.1-0.4,0.5-0.7,0.6C94.7,60.7,93.7,61,92.4,59.8z"/>
	<path d="M268.2,359.4c-1.2-1.3-2.4-2.5-3.6-3.9c1.5-0.7,1.6-0.6,1.8,0.6c0.1,0.4,0.5,0.9,0.8,1.2c0.5,0.6,1,1.1,1.4,1.7
		C268.5,359.2,268.4,359.3,268.2,359.4z"/>
	<path d="M95.7,92.1c0.3-2.1,0.6-4.1,0.9-6.2c0.1,0,0.3,0,0.4,0.1c-0.2,2.1-0.1,4.2-0.9,6.2C95.9,92.2,95.8,92.2,95.7,92.1z"/>
	<path d="M277.3,366.1c1.3,0.9,2.6,1.7,4,2.6C280.5,369.3,277.8,367.8,277.3,366.1z"/>
	<path d="M314.4,119.2c-2.5,0-4.9,0-7.4,0c0-0.1,0-0.2,0-0.3c2.5,0,4.9,0,7.4,0C314.4,119,314.4,119.1,314.4,119.2z"/>
	<path d="M93.7,126.3c-0.7-0.2-1.2-0.4-1.5-0.5c0.3-0.9,0.7-1.6,1.1-2.7C93.5,124.2,93.6,125.1,93.7,126.3z"/>
	<path d="M255.3,340.6c0.7,1.3,1.5,2.7,2.2,4c-0.2,0.1-0.3,0.2-0.5,0.3c-0.7-1.4-1.4-2.8-2-4.1C255.1,340.8,255.2,340.7,255.3,340.6
		z"/>
	<path d="M315.9,118.9c1.7,0,3.3,0,5,0c0,0.1,0,0.1,0,0.2c-1.6,0-3.3,0-4.9,0C315.9,119.1,315.9,119,315.9,118.9z"/>
	<path d="M338.1,363.9c-1.2-0.7-2.4-1.3-3.6-2c0.1-0.1,0.1-0.2,0.2-0.4c1.2,0.6,2.5,1.2,3.7,1.8
		C338.3,363.6,338.2,363.8,338.1,363.9z"/>
	<path d="M257.4,306.6c0.7,0.9,1.5,1.8,2.2,2.7c-0.1,0.1-0.3,0.2-0.4,0.3c-0.7-0.9-1.5-1.8-2.2-2.7
		C257.1,306.8,257.2,306.7,257.4,306.6z"/>
	<path d="M252.4,226.2c1.1,0,2.3,0,3.4,0c0,0.1,0,0.2,0,0.2c-1.1,0-2.3,0-3.4,0C252.4,226.4,252.4,226.3,252.4,226.2z"/>
	<path d="M288.5,332.5c-0.8-0.7-1.5-1.4-2.3-2.1c0.1-0.1,0.3-0.2,0.4-0.4C287.4,330.8,288.4,331.3,288.5,332.5
		C288.5,332.5,288.5,332.5,288.5,332.5z"/>
	<path d="M180.3,218.9c0.5,0.3,1,0.6,1.5,0.9c-0.1,0.1-0.1,0.2-0.2,0.4c-0.6-0.2-1.1-0.5-1.7-0.7C180,219.3,180.2,219.1,180.3,218.9
		z"/>
	<path class="st0" d="M209.5,91.5c0,0.9,0,1.8,0,2.8c-0.1,2.6,0.6,5.3-0.2,7.9c-0.3,1,0,2.3-0.1,3.4c0,0.7-0.3,1.4-0.3,2.1
		c-0.1,3.1-0.2,6.2-0.2,9.3c0,0.3,0.1,0.6,0.1,0.8c0,1.6-1,2.3-2.4,1.6c-0.2-0.1-0.5-0.6-0.5-0.8c-0.1-2.9-0.1-5.8-0.1-8.7
		c0-0.5,0-1,0-1.4c0.1-1.3,0.3-2.7,0.3-4c0-1.5,0-3.1,0-4.6c0-0.2-0.1-0.3-0.1-0.5c1-2.6,0.1-5.2,0.4-7.8c0.2-1.9,0.2-3.7,0.1-5.6
		c-0.1-3.2-1.1-6.1-3.2-8.5c-0.2-0.2-0.4-0.5-0.6-0.8c-0.6-1.4-1.8-1.5-3.1-0.9c0-0.1-0.1-0.1-0.1-0.2c-0.1-1.6-1.3-2.1-2.5-2.7
		c-1.6-0.9-2.1-1.8-2.7-3.9c1.4-0.2,2.8-0.5,4.2-0.6c3.1-0.2,6.2-0.3,9.3-0.6c3.7-0.3,7.3-0.7,11-1.1c1.9-0.2,3.9-0.3,5.8-0.5
		c3-0.2,5.9-0.4,8.9-0.6c0.8-0.1,1.6-0.1,2.4-0.1c2-0.1,4-0.1,6.1-0.2c1.1-0.1,2.1-0.4,3.2-0.4c2.7-0.1,5.5-0.1,8.2-0.1
		c2.7,0,5.3,0,8,0c0.8,0,1.6-0.3,2.4-0.2c0.3,0,0.9,0.5,0.9,0.8c-0.2,2.9,0.2,6-0.8,8.6c-0.8,2.2-0.9,4.3-1,6.4
		c-0.1,1-0.1,2.1-0.1,3.1c-0.1,6.7-0.3,13.4-0.4,20.1c0,2.3,0.2,4.5,0.6,6.8c0.2,1.5,0.9,2.8,1.2,4.3c0.3,2,0.4,4.1,0.6,6.2
		c0.1,0.7-0.2,0.9-0.9,0.8c-1.9-0.2-3.9-0.3-5.8-0.4c-3.9-0.1-7.9-0.1-11.8-0.1c-3.3,0-6.6-0.1-9.9,0c-1.8,0-3.6,0.1-5.3,0.2
		c-0.5,0-0.9,0.2-1.3,0.5c-1.1,0.6-1.9,0.4-2.7-0.5c-0.4-0.4-1.1-0.5-1.7-0.5c-2.7,0-5.3,0-8,0c-0.6,0-1.4,0-1.7-0.3
		c-0.5-0.7-0.9-1.6-1-2.4c-0.2-3.1-0.2-6.2-0.4-9.3c-0.1-1.4-0.6-2.7-0.7-4c-0.3-2.6-0.6-5.3-0.9-7.9c-0.1-0.5-0.5-0.9-0.7-1.3
		c-0.2-0.3-0.4-0.5-0.5-0.7c-0.3-1.1-0.6-2.3-0.9-3.4C209.7,91.4,209.6,91.5,209.5,91.5z M256.6,110.2c0.1,0,0.2,0,0.3-0.1
		c0-0.3,0-0.6,0-0.9c-0.2-2.6-0.5-5.2-0.6-7.8c-0.2-4.5-0.2-8.9-0.3-13.4c0-0.3-0.2-0.7-0.2-1c-0.1,0-0.3,0-0.4,0
		c-0.1,0.5-0.3,0.9-0.3,1.4c0.1,1.7,0.2,3.3,0.3,5c0.3,5.2,0.5,10.5,0.8,15.7C256.2,109.4,256.4,109.8,256.6,110.2z M256.2,72.7
		c0.2,0,0.4,0,0.6,0c0.1-1.4,0.3-2.7,0.4-4.1c-0.2,0-0.4,0-0.6-0.1C256.4,70,256.3,71.3,256.2,72.7z"/>
	<path class="st0" d="M191.4,89.8c-0.7-1.1-1.5-2.1-2.1-3.3c-0.4-0.7-0.4-1.5-0.6-2.3c-0.1-0.5-0.2-1-0.4-1.6c-0.1,0-0.3,0-0.4,0
		c-0.1,0.5-0.2,1-0.2,1.5c0,1.4,0.3,2.7,0.2,4.1c-0.2,2.3-0.5,4.6-0.7,6.9c-0.2,2.6-0.4,5.2-0.5,7.8c-0.3,5.1-0.5,10.1-0.7,15.2
		c0,1,0,2,0,3c0,1.2-0.4,1.3-1.6,1.3c-2.1,0-4.2,0.1-6.3,0.2c-0.9,0-1.8,0.4-2.6,0.3c-0.5,0-1-0.6-1.5-0.9c0.4-0.3,0.7-0.8,1.1-0.9
		c1.1-0.3,2.3-0.4,3.5-0.6c1.4-0.3,2.8-0.8,4.3-0.5c0.2,0,0.4-0.4,0.7-0.6c-0.2-0.2-0.5-0.5-0.7-0.5c-0.8,0-1.7,0.1-2.5,0.2
		c-1.9,0.3-3.7,0.6-5.6,0.8c-1.2,0.1-2.5,0-3.7,0.1c-0.7,0.1-1.3,0.5-2,0.6c-1.1,0.2-2.3,0.3-3.5,0.4c-0.9,0.1-1.9,0-2.8,0.1
		c-3.2,0.5-6.4,1-9.5,1.6c-3.1,0.6-6.2,1.4-9.3,2.2c-0.3,0.1-0.5,0.4-0.7,0.8c0.8,0,1.6,0,2.4,0c0,0.2,0.1,0.3,0.1,0.3
		c-1.6,1.7-3,3.6-5.6,4c-4,0.6-7.9,1.3-11.9,1.8c-1.7,0.2-1.8,0-1.7-1.6c0.2-1.7,0.2-3.5,0.3-5.3c0.2-3.3,0.3-6.6,0.6-9.9
		c0.1-1.5,0.6-2.9,0.7-4.4c0.2-1.8,0-3.7,0.2-5.5c0.3-3.1,0.9-6.2,1.2-9.4c0.3-2.8,0.6-5.6,0.7-8.5c0.1-2.6,0.1-5.2,0.2-7.9
		c0-0.5-0.1-1-0.1-1.5c-0.2-1.2,0.3-1.9,1.5-1.8c2.6,0.1,5.1-0.3,7.6-0.8c2.4-0.5,4.8-0.6,7.2-0.9c3.2-0.4,6.4-0.8,9.7-1.2
		c3.3-0.4,6.6-0.8,9.9-1.2c3.4-0.5,6.9-1,10.3-1.4c3.1-0.4,6.2-0.7,9.3-1.1c1.9-0.2,3.8-0.5,5.7-0.8c1.2-0.2,1.8,0,2,1.2
		c0.2,1.4,0.3,2.9,0.3,4.3c0.1,5.1-1.1,10-2.1,15C191.4,89.7,191.4,89.8,191.4,89.8z"/>
	<path class="st0" d="M120.4,114.7c0.2,1,0.6,1.9,0.6,2.9c0.2,4.4,0.5,8.8,0.5,13.2c0,6.6,0.9,13.1,1.1,19.6c0.1,2.3-0.3,4.7-0.4,7
		c0,0.9,0,1.8,0,2.7c0.1,0,0.3,0,0.4,0c0.2-0.4,0.3-0.8,0.6-1.2c0.2-0.3,0.6-0.5,0.9-0.8c0.2,0.3,0.5,0.7,0.6,1
		c0.2,0.6,0.3,1.1,0.4,1.8c0.3-0.1,0.3-0.1,0.3-0.2c0.1-3.3,0.3-6.6,0.4-9.9c0.1-1.4,0.2-2.7,0.3-4c0-0.3,0.1-0.7,0-1
		c-0.4-1.2-0.3-2.3-0.1-3.5c0.4-2.4,0.6-4.8,0.8-7.4c0.6,0.5,1.1,0.7,1.2,1c0.2,0.9,0.8,0.9,1.4,1c2.3,0.6,4.6,0.5,7,0.4
		c0.6,0,1.3,0.4,2,0.7c-0.3,0.5-0.4,0.8-0.7,1.3c1,0.1,1.8,0.2,2.6,0.3c0,0.1,0,0.2,0,0.3c-1.1,0.2-2.2,0.3-3.3,0.5
		c-1.1,0.2-2.3,0.4-3.4,0.8c1.4-0.1,2.8-0.1,4.1-0.2c2.6-0.1,5.3-0.2,7.9-0.3c0.6,0,1,0.3,0.8,1c-0.2,0.8,0.2,1.1,1,1.1
		c2.1-0.2,4.2-0.4,6.3-0.6c2-0.2,4.1-0.3,6.1-0.5c0.6-0.1,1.3-0.1,1.9-0.2c0,0.2,0.1,0.3,0.1,0.5c-0.6,0.2-1.2,0.3-2.1,0.6
		c0.5,0.1,0.8,0.2,1.1,0.2c3.3-0.2,6.7-0.4,10-0.6c2.1-0.1,4.2-0.4,6.3-0.5c1.3-0.1,2,0.9,1.4,1.9c-0.8,1.2-0.3,2.2,0.7,3.2
		c0.3-1.8,0.5-3.6,0.8-5.5c1.5,0,2.8,0,4.2,0c0.7,0,1.1,0.3,1.1,1.1c-0.1,2.9-0.1,5.9-0.1,8.8c-0.2,7.1-0.4,14.2-0.6,21.3
		c-0.1,2-0.1,4,0,6c0,1-0.5,1.5-1.4,1.5c-1.3,0.1-2.6,0.1-3.8,0.1c-0.9,0-1.1-0.4-1.1-1.2c0.1-1.1,0-2.3-0.2-3.4
		c-0.3,1.4-1.1,2.7-0.5,4.2c-0.7,0.7-1.5,0.8-2.4,1c-3.2,0.9-6.4,0.2-9.6,0.5c-1.8,0.2-3.7,0.5-5.4,0.7c0.5,0.1,1.2,0.2,1.8,0.3
		c0,0.1,0,0.2,0,0.4c-1,0.6-2.1,0.3-3.1,0.2c-1.7-0.1-3.3-0.4-5-0.3c-4.7,0.3-9.5,0.8-14.2,1.2c-4.6,0.4-9.2,0.8-13.8,1.1
		c-2.5,0.1-5-0.1-7.5,0c-1.1,0-2.2,0.4-3.3,0.4c-1,0-2-0.2-3-0.4c-0.1,0-0.3-0.6-0.2-0.9c0.2-1.2,1.3-2.1,2.6-2c0.4,0,0.9,0,1.3,0
		c1.3-0.1,1.6-0.4,1.8-1.7c0.3-1.7-0.1-3.4,0.1-5c0.3-2.8,0.2-5.8,2-8.3c0.2-0.2,0.3-0.5,0.3-0.8c0-1.8,0.1-3.5-0.1-5.3
		c-0.2-2.9-0.6-5.8-0.7-8.7c-0.2-6.8-0.3-13.6-0.4-20.4c0-2.5,0-5.1,0.1-7.6c0.1-2.3,0.3-4.6,0.5-7c0.1-0.9,0.5-1.8,0.8-2.7
		C120.1,114.8,120.3,114.8,120.4,114.7z M177.3,163.2c0.5,0.4,0.8,0.7,1.1,1c0.2-0.3,0.7-0.7,0.7-1c0-0.5-0.5-0.9-0.7-1.3
		C178.1,162.2,177.8,162.6,177.3,163.2z"/>
	<path class="st0" d="M213.9,141.3c3.8,0,7.6,0,11.4,0c2.5,0,5-0.2,7.5-0.3c2.7,0,5.5,0,8.2,0c3.1,0.1,6.1,0.3,9.2,0.2
		c1.7,0,3.3-0.7,5-0.8c1.5-0.1,2.8-1.3,4.4-0.8c0.8,0.2,1.5,0.7,2.2,1c0.6,0.3,1.3,0.7,1.5-0.5c0-0.2,0.9-0.4,1.4-0.3
		c0.5,0.1,1,0.5,1.5,0.8c0.2-0.1,0.3-0.2,0.5-0.3c0.2,2.2,0.5,4.5,0.7,6.7c0.2,1.7,0.4,3.4,0.5,5.1c0.3,3,0.6,5.9,1,8.9
		c0.5,4.2,1.1,8.3,1.6,12.4c0.2,1.3,0.4,2.6,0.5,3.9c0.1,0.9-0.2,1.4-1.2,1.3c-2.8-0.1-5.6-0.3-8.3-0.4c-2.1-0.1-4.2-0.1-6.3-0.2
		c-2.5,0-5,0-7.4,0c-3.3,0-6.6,0-9.9,0c-3,0.1-6,0.3-8.9,0.3c-1.3,0-2.5,0-3.4,1.1c0,0-0.1,0.1-0.1,0.1c-2.3-0.1-4.7-0.1-7-0.3
		c-0.9-0.1-1.7-0.5-2.6-0.7c-0.1,0-0.4,0-0.5,0.1c-0.9,1.4-2.5,0.9-3.7,1.4c-0.3,0.1-0.9,0.1-1.1-0.1c-0.2-0.3-0.1-0.8-0.1-1.2
		c0-0.4,0.3-0.7,0.3-1.1c0.4-3.4,0.8-6.8,1.1-10.2c0.2-1.6,0.1-3.3,0.3-4.9c0.3-3.4,0.7-6.9,1-10.3c0.1-1.3,0-2.6,0.1-3.9
		C213.4,146.2,213.7,143.9,213.9,141.3z"/>
	<path class="st0" d="M204.6,161.1c0.3-5.7,0.7-11.4,1-17.1c0-0.5,0-1,0-1.4c-0.1-0.8,0.2-1.2,1.1-1.2c1.6,0,1.5-0.1,1.3,1.5
		c-0.2,2.1-0.2,4.2-0.4,6.3c-0.2,2.7-0.4,5.3-0.6,8c0,0.2-0.2,0.5-0.1,0.7c0.8,1.9-0.2,3.9,0,5.8c0.2,1.8,0.1,3.7,0.1,5.5
		c-0.1,3.2-0.1,6.5-0.2,9.7c0,1.1-0.9,1.5-2.4,1.4c-1.1-0.1-1-0.9-1-1.6c0.3-4.3,0.6-8.5,0.9-12.8
		C204.4,164.4,204.4,162.7,204.6,161.1C204.5,161.1,204.6,161.1,204.6,161.1z"/>
	<path class="st0" d="M267.1,74.1c-0.6-3.1-1.2-6.3-1.8-9.5c2.7-0.3,5.4-0.6,8.4-0.9c-0.3,0.8-0.4,1.3-0.6,1.8
		c-0.4-0.1-0.7-0.2-1-0.3c-0.3,0.8-0.5,1.5-0.8,2.5c-0.7-0.4-1.1-0.7-1.4-0.9c-0.5,1.2-1.1,2.3-1.5,3.6c-0.4,1.2-0.7,2.5-1,3.7
		C267.3,74.1,267.2,74.1,267.1,74.1z"/>
	<path d="M256.6,110.2c-0.1-0.4-0.3-0.8-0.3-1.1c-0.3-5.2-0.5-10.5-0.8-15.7c-0.1-1.7-0.3-3.3-0.3-5c0-0.4,0.2-0.9,0.3-1.4
		c0.1,0,0.3,0,0.4,0c0.1,0.3,0.2,0.7,0.2,1c0.1,4.5,0.1,8.9,0.3,13.4c0.1,2.6,0.4,5.2,0.6,7.8c0,0.3,0,0.6,0,0.9
		C256.8,110.2,256.7,110.2,256.6,110.2z"/>
	<path d="M256.2,72.7c0.1-1.4,0.2-2.7,0.3-4.1c0.2,0,0.4,0,0.6,0.1c-0.1,1.4-0.3,2.7-0.4,4.1C256.5,72.7,256.3,72.7,256.2,72.7z"/>
	<path d="M177.3,163.2c0.5-0.6,0.8-1,1.1-1.4c0.3,0.4,0.7,0.9,0.7,1.3c0,0.3-0.4,0.7-0.7,1C178.1,163.9,177.8,163.6,177.3,163.2z"/>
</g>
</svg>
